<svg width="218" height="288" viewBox="0 0 218 288" fill="none" xmlns="http://www.w3.org/2000/svg">
<path d="M32.7296 254.021C20.8384 254.021 16 260.767 16 268.511C16 274.066 18.528 279.097 24.3392 281.484C23.936 279.647 24.6272 278.111 25.6896 277.093C25.7728 277.01 25.8624 276.933 25.9648 276.863C22.4384 275.385 21.2032 272.447 21.2032 268.511C21.2032 262.687 23.8976 259.001 32.736 259.001C41.5744 259.001 44.2688 262.687 44.2688 268.511C44.2688 272.441 43.008 275.372 39.488 276.863C39.5904 276.921 39.6864 277.004 39.776 277.093C40.8256 278.111 41.5104 279.634 41.1264 281.471C46.9248 279.077 49.4592 274.066 49.4592 268.517C49.4592 260.767 44.5248 254.028 32.7296 254.028V254.021ZM62.3552 260.697H58.5216C58.08 260.697 57.7152 260.325 57.7152 259.877V254.725C57.7152 254.284 57.344 253.906 56.896 253.906H53.3248C52.8832 253.906 52.5056 254.277 52.5056 254.725V282.559C52.5056 283.001 52.8768 283.365 53.3248 283.365H56.896C57.3376 283.365 57.7152 283.007 57.7152 282.559V266.431C57.7152 265.989 58.0736 265.625 58.5216 265.625H62.3552C62.7968 265.625 63.1744 265.253 63.1744 264.805V261.49C63.1744 261.049 62.8032 260.684 62.3552 260.684V260.697Z" fill="#FC986C"/>
<path d="M81.9757 254.016C93.7709 254.016 98.7053 260.768 98.7053 268.512C98.7053 276.256 93.7709 282.957 81.9757 282.957C70.1805 282.957 65.2461 276.256 65.2461 268.512C65.2461 260.768 70.0781 254.016 81.9757 254.016ZM81.9757 277.965C90.7565 277.965 93.5085 274.33 93.5085 268.506C93.5085 262.682 90.7565 259.002 81.9757 259.002C73.1949 259.002 70.4429 262.688 70.4429 268.506C70.4429 274.324 73.1437 277.965 81.9757 277.965ZM103.544 253.914H107.16C107.595 253.914 107.953 254.266 107.953 254.708V282.586C107.953 283.021 107.601 283.38 107.16 283.38H103.544C103.108 283.38 102.75 283.028 102.75 282.586V254.708C102.75 254.272 103.102 253.914 103.544 253.914Z" fill="#FC986C"/>
<path d="M113.965 277.345H131.034C131.488 277.345 131.853 276.98 131.853 276.525V274.989C131.853 274.535 131.488 274.17 131.034 274.17H114.957C114.503 274.17 114.138 273.805 114.138 273.351V255.194C114.138 254.74 114.503 254.375 114.957 254.375H118.516C118.97 254.375 119.335 254.74 119.335 255.194V259.847C119.335 260.301 119.7 260.666 120.154 260.666H148.442C148.896 260.666 149.261 260.301 149.261 259.847V255.194C149.261 254.74 149.626 254.375 150.08 254.375H153.639C154.093 254.375 154.458 254.74 154.458 255.194V273.351C154.458 273.805 154.093 274.17 153.639 274.17H137.869C137.415 274.17 137.05 274.535 137.05 274.989V276.525C137.05 276.98 137.415 277.345 137.869 277.345H154.727C155.181 277.345 155.546 277.709 155.546 278.164V281.517C155.546 281.972 155.181 282.337 154.727 282.337H113.972C113.517 282.337 113.152 281.972 113.152 281.517V278.164C113.152 277.709 113.517 277.345 113.972 277.345H113.965ZM149.248 268.372V266.477C149.248 266.023 148.884 265.658 148.429 265.658H120.141C119.687 265.658 119.322 266.023 119.322 266.477V268.372C119.322 268.826 119.687 269.191 120.141 269.191H148.429C148.884 269.191 149.248 268.826 149.248 268.372Z" fill="#FC986C"/>
<path d="M196.11 279.981H161.511C161.082 279.981 160.73 279.636 160.73 279.2V265.364C160.73 264.935 161.076 264.583 161.511 264.583H184.839C185.268 264.583 185.62 264.237 185.62 263.802V260.25C185.62 259.821 185.274 259.469 184.839 259.469H162.087C161.658 259.469 161.306 259.124 161.306 258.688V255.258C161.306 254.829 161.652 254.477 162.087 254.477H190.036C190.465 254.477 190.817 254.823 190.817 255.258V268.788C190.817 269.216 190.471 269.568 190.036 269.568H166.708C166.279 269.568 165.927 269.914 165.927 270.349V274.215C165.927 274.644 166.273 274.996 166.708 274.996H196.116C196.545 274.996 196.897 274.65 196.897 274.215V254.695C196.897 254.266 197.242 253.914 197.678 253.914H201.313C201.742 253.914 202.094 254.26 202.094 254.695V282.592C202.094 283.021 201.748 283.373 201.313 283.373H197.678C197.249 283.373 196.897 283.028 196.897 282.592V280.762C196.897 280.333 196.551 279.981 196.116 279.981H196.11Z" fill="#FC986C"/>
<path d="M39.3972 282.074C39.1668 282.605 38.7828 283.194 38.2324 283.821C38.1044 283.994 37.8996 284.077 37.7012 284.077C37.5284 284.077 37.3556 284.02 37.2276 283.892C36.9268 283.636 36.8948 283.175 37.1572 282.887C37.2596 282.772 37.3556 282.644 37.458 282.528C38.546 281.14 38.6484 280 37.7908 279.168C37.1316 278.535 36.0436 278.106 34.7892 277.876C34.13 277.76 33.426 277.703 32.722 277.703C32.018 277.703 31.3012 277.76 30.642 277.876C29.4068 278.106 28.3188 278.535 27.6596 279.168C26.7828 280 26.898 281.133 27.9924 282.528C28.0948 282.644 28.1908 282.772 28.2932 282.887C28.5492 283.175 28.5236 283.636 28.2228 283.892C28.082 284.007 27.922 284.077 27.7492 284.077C27.5508 284.077 27.346 283.994 27.2052 283.821C26.6612 283.188 26.29 282.599 26.0404 282.074C25.106 280.02 26.098 278.688 26.674 278.144C26.962 277.869 27.2884 277.645 27.666 277.44C29.0036 276.692 30.866 276.32 32.7284 276.32C34.5908 276.32 36.4596 276.692 37.7908 277.44C38.162 277.639 38.5076 277.869 38.7828 278.144C39.3588 278.688 40.3636 280.026 39.3972 282.074Z" fill="#FC986C"/>
<path d="M35.7954 282.775C35.7826 282.673 35.7698 282.577 35.7378 282.487C35.3794 281.156 33.7026 279.773 32.781 279.773H32.5506C31.6738 279.773 30.0674 281.053 29.6386 282.34C29.5938 282.481 29.5554 282.628 29.5362 282.769C29.5234 282.839 29.5234 282.909 29.5234 282.967C29.5234 283.383 29.5682 283.844 29.6834 284.285V284.298C29.9842 285.348 30.7458 286.308 32.5506 286.391H32.781C34.7202 286.308 35.4498 285.226 35.693 284.093C35.7762 283.703 35.8082 283.319 35.8082 282.961C35.8082 282.89 35.8082 282.833 35.7954 282.762V282.775ZM32.6978 284.97C31.6098 284.957 30.9634 284.612 30.9634 282.973C30.9634 282.948 30.9634 282.916 30.9762 282.89C31.0594 282.314 32.109 281.309 32.557 281.213H32.7426C33.2738 281.341 34.2914 282.346 34.3618 282.909C34.3746 282.935 34.3746 282.967 34.3746 282.98C34.3746 284.618 33.741 284.957 32.6978 284.977V284.97Z" fill="#FC986C"/>
<path d="M32.1679 251.359C31.9119 253.125 32.7247 253.823 33.9343 254.636C36.1487 255.596 34.6511 259.084 32.4623 257.509C31.3551 256.754 30.2799 255.493 29.7423 254.028C27.0607 247.333 35.1503 241.874 40.1167 247.058C42.3759 249.592 40.9999 252.408 37.8703 249.624C36.1743 248.05 32.9679 248.639 32.2639 251.013L32.1743 251.365L32.1679 251.359Z" fill="#FC986C"/>
<path d="M43.9844 231.461V232.387H39.6953V235.996H38.6055V232.387H34.375V231.461H43.9844ZM39.1562 225.895C41.3711 225.895 42.8945 226.797 42.8945 228.227C42.8945 229.645 41.3711 230.535 39.1562 230.535C36.9297 230.535 35.418 229.645 35.418 228.227C35.418 226.797 36.9297 225.895 39.1562 225.895ZM39.1562 226.785C37.5977 226.797 36.5547 227.336 36.5664 228.227C36.5547 229.105 37.5977 229.645 39.1562 229.645C40.7148 229.645 41.7578 229.105 41.7578 228.227C41.7578 227.336 40.7148 226.797 39.1562 226.785ZM53.1766 225.496V236.02H52.0633V225.496H53.1766ZM49.9656 226.445V230.277H46.1922V232.574C47.8914 232.568 49.3797 232.492 51.1375 232.199L51.243 233.113C49.3797 233.43 47.7977 233.5 45.9461 233.5H45.0555V229.387H48.8289V227.348H45.0437V226.445H49.9656ZM59.9711 226.281C61.5414 226.281 62.6547 227.711 62.6664 229.961C62.6547 232.223 61.5414 233.652 59.9711 233.652C58.4008 233.652 57.2758 232.223 57.2875 229.961C57.2758 227.711 58.4008 226.281 59.9711 226.281ZM59.9711 227.277C59.0102 227.277 58.3539 228.309 58.3539 229.961C58.3539 231.625 59.0102 232.656 59.9711 232.656C60.9438 232.656 61.6 231.625 61.6 229.961C61.6 228.309 60.9438 227.277 59.9711 227.277ZM65.3383 225.496V229.609H67.0258V230.547H65.3383V235.996H64.225V225.496H65.3383ZM75.925 225.496V236.02H74.8117V225.496H75.925ZM70.3117 226.281C71.8703 226.281 73.0187 227.711 73.0187 229.961C73.0187 232.223 71.8703 233.652 70.3117 233.652C68.7297 233.652 67.593 232.223 67.593 229.961C67.593 227.711 68.7297 226.281 70.3117 226.281ZM70.3117 227.277C69.3391 227.277 68.6711 228.309 68.6711 229.961C68.6711 231.625 69.3391 232.656 70.3117 232.656C71.2727 232.656 71.9406 231.625 71.9406 229.961C71.9406 228.309 71.2727 227.277 70.3117 227.277ZM80.7227 226.246C82.3867 226.234 83.5703 227.266 83.582 228.742C83.5703 230.219 82.3867 231.25 80.7227 231.25C79.0703 231.25 77.8516 230.219 77.8633 228.742C77.8516 227.266 79.0703 226.234 80.7227 226.246ZM80.7227 227.207C79.7031 227.207 78.9531 227.816 78.9648 228.742C78.9531 229.668 79.7031 230.277 80.7227 230.277C81.7422 230.277 82.4922 229.668 82.4922 228.742C82.4922 227.816 81.7422 227.207 80.7227 227.207ZM85.9844 225.496V236.02H84.8711V225.496H85.9844ZM77.3594 232.832C79.2695 232.832 81.918 232.809 84.2148 232.48L84.2969 233.289C81.918 233.746 79.375 233.758 77.5 233.758L77.3594 232.832ZM98.2516 225.484V228.625H99.775V229.562H98.2516V233.207H97.1383V225.484H98.2516ZM98.6969 234.871V235.773H91.5953V232.398H92.7086V234.871H98.6969ZM92.9547 226.211C94.5367 226.211 95.7438 227.289 95.7555 228.824C95.7438 230.348 94.5367 231.438 92.9547 231.438C91.3727 231.438 90.1539 230.348 90.1656 228.824C90.1539 227.289 91.3727 226.211 92.9547 226.211ZM92.9547 227.184C91.9938 227.184 91.2438 227.852 91.2555 228.824C91.2438 229.797 91.9938 230.465 92.9547 230.465C93.9273 230.465 94.6656 229.797 94.6656 228.824C94.6656 227.852 93.9273 227.184 92.9547 227.184ZM108.78 225.508V231.449H107.666V225.508H108.78ZM108.78 232.012V235.867H101.877V232.012H108.78ZM102.979 232.902V234.965H107.69V232.902H102.979ZM103.893 226.926C103.881 228.344 104.901 229.621 106.495 230.16L105.944 231.016C104.725 230.611 103.811 229.779 103.33 228.695C102.862 229.85 101.93 230.77 100.67 231.215L100.12 230.336C101.76 229.785 102.756 228.391 102.756 226.926V225.906H103.893V226.926ZM114.784 226.715C114.784 227.711 114.685 228.678 114.409 229.586H115.898V225.766H116.952V235.48H115.898V230.488H114.07C113.484 231.771 112.47 232.914 110.812 233.84L110.179 233.066C111.702 232.217 112.622 231.191 113.144 230.02L110.331 230.312L110.179 229.352L113.46 229.152C113.589 228.666 113.665 228.156 113.706 227.629H110.695V226.715H114.784ZM119.167 225.496V235.996H118.113V225.496H119.167ZM123.062 226.281C124.486 226.281 125.529 227.488 125.699 229.434H127.867V225.496H128.969V236.02H127.867V230.336H125.711C125.588 232.381 124.521 233.652 123.062 233.652C121.492 233.652 120.391 232.223 120.402 229.961C120.391 227.711 121.492 226.281 123.062 226.281ZM123.062 227.277C122.113 227.277 121.457 228.309 121.457 229.961C121.457 231.625 122.113 232.656 123.062 232.656C124.012 232.656 124.668 231.625 124.668 229.961C124.668 228.309 124.012 227.277 123.062 227.277ZM139.884 230.312V231.168H130.274V230.312H139.884ZM138.7 231.906V234.215H132.536V235.082H139.028V235.867H131.423V233.477H137.598V232.703H131.411V231.906H138.7ZM138.677 225.766V228.039H132.606V228.836H138.852V229.621H131.505V227.301H137.563V226.551H131.481V225.766H138.677ZM152.725 227.031V227.945H151.237V229.281H152.725V230.219H151.237V231.719H150.123V225.496H151.237V227.031H152.725ZM151.237 232.188V235.996H150.123V233.09H144.299V232.188H151.237ZM145.94 226.105C147.545 226.105 148.729 227.137 148.741 228.613C148.729 230.09 147.545 231.121 145.94 231.121C144.334 231.121 143.139 230.09 143.151 228.613C143.139 227.137 144.334 226.105 145.94 226.105ZM145.94 227.055C144.955 227.055 144.229 227.676 144.241 228.613C144.229 229.562 144.955 230.184 145.94 230.172C146.924 230.184 147.651 229.562 147.651 228.613C147.651 227.676 146.924 227.055 145.94 227.055ZM162.655 230.711V231.625H153.058V230.711H157.288V229.176H158.39V230.711H162.655ZM158.402 226.105C158.402 227.441 160.042 228.613 162.07 228.871L161.636 229.75C159.966 229.486 158.495 228.672 157.839 227.512C157.165 228.672 155.695 229.486 154.019 229.75L153.609 228.871C155.624 228.613 157.265 227.43 157.277 226.105V225.66H158.402V226.105ZM161.46 232.551V235.996H160.335V233.43H154.124V232.551H161.46ZM171.309 225.496V229.75H172.996V230.676H171.309V235.996H170.207V225.496H171.309ZM169.293 227.137V228.051H163.07V227.137H165.66V225.637H166.773V227.137H169.293ZM166.223 228.824C167.723 228.824 168.824 229.832 168.836 231.262C168.824 232.703 167.723 233.699 166.223 233.711C164.711 233.699 163.609 232.703 163.609 231.262C163.609 229.832 164.711 228.824 166.223 228.824ZM166.223 229.738C165.332 229.738 164.664 230.359 164.676 231.262C164.664 232.176 165.332 232.785 166.223 232.773C167.113 232.785 167.77 232.176 167.77 231.262C167.77 230.359 167.113 229.738 166.223 229.738ZM181.696 228.566V229.457H174.466V225.871H175.567V228.566H181.696ZM182.798 230.781V231.672H173.188V230.781H182.798ZM181.766 234.836V235.75H174.384V232.668H175.497V234.836H181.766Z" fill="#B45A5A"/>
<g clip-path="url(#clip0_1644_23037)">
<path d="M170.343 35.7046H47.6562C36.6106 35.7046 27.6562 44.6589 27.6562 55.7046V178C27.6562 189.045 36.6106 198 47.6563 198H170.343C181.389 198 190.343 189.045 190.343 178V55.7046C190.343 44.6589 181.389 35.7046 170.343 35.7046Z" fill="#FFD6BB"/>
<path d="M85.2506 173.891C85.2506 173.891 44.1835 179.392 40.6852 181.118C37.1868 182.844 68.8238 195.95 68.8238 195.95L121.527 186.239L125.633 173.986C125.633 173.986 93.369 171.824 85.2696 173.891H85.2506Z" fill="#7C5646"/>
<path d="M96.8114 126.491C96.7544 127.041 96.8494 127.648 96.6403 128.103C93.199 135.728 90.157 143.504 88.0846 151.641C87.8755 152.419 87.1911 153.083 86.7347 153.803C78.1601 155.453 69.5854 157.217 60.9727 158.697C58.5011 159.114 57.1132 160.195 56.3907 162.452C55.7062 164.539 55.0788 166.663 54.1852 168.654C53.881 169.337 52.8544 169.698 52.1509 170.21C51.7136 169.508 50.8961 168.825 50.9151 168.123C50.9151 166.075 51.2383 164.007 51.4854 161.959C51.5615 161.295 51.7326 160.65 51.8467 160.006C51.6756 159.816 51.5045 159.626 51.3524 159.436C50.6869 159.949 50.0785 160.593 49.337 160.973C47.3217 161.997 45.3254 163.078 43.196 163.818C42.3594 164.121 41.2377 163.628 40.249 163.495C40.5152 162.414 40.4201 160.954 41.1046 160.347C42.7207 158.905 44.679 157.843 46.5422 156.705C47.2837 156.25 48.1392 155.985 49.242 155.51C47.721 154.164 46.3711 153.026 45.0782 151.793C44.2607 151.015 43.4241 150.2 42.8728 149.251C42.5115 148.644 42.6446 147.753 42.5495 146.994C43.31 146.899 44.1656 146.539 44.812 146.767C47.3027 147.639 49.7743 148.606 52.1509 149.725C56.2576 151.679 60.1742 151.622 64.2619 149.555C71.7909 145.78 78.5213 140.849 85.1567 135.747C89.0923 132.712 92.9329 129.564 96.8114 126.472V126.491Z" fill="#C28C70"/>
<path d="M95.9017 280.999C95.1031 283.369 94.2856 285.74 93.5061 288.111C92.6061 290.83 90.7809 291.961 88.0304 291.506C87.289 291.373 86.5285 291.298 85.806 291.089C73.4668 287.599 61.1277 284.147 48.8265 280.562C44.4726 279.292 44.5107 279.14 47.3245 275.612C51.8495 271.97 57.2301 271.212 62.7437 271.382C66.4892 271.496 70.1967 272.084 73.9231 272.483C77.7827 273.317 81.6232 274.171 85.4637 275.024C85.6158 274.588 85.92 274.133 85.863 273.715C85.7109 272.672 85.3877 271.648 85.1405 270.624C84.8173 269.486 84.4941 268.348 84.1709 267.21C82.4788 261.311 80.7296 255.431 79.1326 249.495C76.737 240.542 74.4174 231.552 72.1169 222.562C69.208 211.239 69.6453 200.181 75.1399 189.635C76.3187 187.378 77.9728 185.368 79.4177 183.244C79.6459 184.002 80.0262 184.761 80.0642 185.52C81.0528 201.395 86.2623 215.677 96.3009 228.081C98.9437 231.344 101.948 234.302 104.781 237.394C105.579 238.304 106.397 239.215 107.195 240.106C106.073 244.544 105.066 249.002 103.83 253.402C101.244 262.62 98.5254 271.819 95.8636 281.037L95.9017 280.999Z" fill="#AD7963"/>
<path d="M133.239 51.0238C134.76 50.91 136.205 50.2272 137.307 49.1271C140.825 45.6183 148.582 38.1833 149.38 37.1211C157.195 26.8221 159.039 15.7835 156.339 4.36543C155.141 -0.717676 153.829 -1.09701 149.019 1.86181C132.06 12.3125 122.63 26.6704 122.192 45.7131C122.192 46.0545 124.645 48.1978 126.28 49.791C127.383 50.8531 128.904 51.3842 130.539 51.2514L133.239 51.0428V51.0238Z" fill="#8E6451"/>
<path d="M145.958 259.183C144.057 253.74 142.156 248.297 140.254 242.853C137.916 236.177 135.691 229.444 133.201 222.805C130.52 215.712 131.718 209.358 136.129 203.326C140.711 197.048 145.16 190.656 149.647 184.302C150.141 183.601 150.502 182.785 150.92 182.026C150.16 182.178 149.742 182.52 149.399 182.937C144.228 189.48 139.038 196.024 133.942 202.624C129.398 208.504 128.01 215.01 130.52 222.103C132.706 228.305 135.045 234.451 137.326 240.615C137.764 241.829 138.334 242.986 138.847 244.162C138.98 244.598 139.114 245.015 139.266 245.451C139.38 245.584 139.57 245.717 139.627 245.869C141.015 249.359 142.365 252.868 143.791 256.338C144.456 257.951 145.293 259.506 146.053 261.08C146.3 260.321 146.186 259.715 145.977 259.146L145.958 259.183ZM133.03 52.3124C131.394 51.8572 129.474 52.3124 128.828 53.2987C131.566 53.3745 133.689 54.1522 135.197 55.6316C135.045 53.678 134.341 52.6917 133.011 52.3314L133.03 52.3124ZM129.664 57.4524C129.037 57.3386 127.839 58.5335 127.44 59.387C126.965 60.3923 126.869 62.0044 128.352 62.2889C129.075 62.4217 130.026 61.3216 130.881 60.7906C130.805 59.1974 131.185 57.7179 129.664 57.4524ZM96.8486 78.1452C100.328 78.9039 104.111 77.2348 104.606 74.9967C102.134 76.002 99.5484 77.0451 96.8486 78.1452Z" fill="#8F8F8F"/>
<path d="M96.8486 78.1482C99.5484 77.0481 102.134 76.0049 104.606 74.9997C104.111 77.2378 100.328 78.9068 96.8486 78.1482ZM128.352 62.2919C126.869 62.0074 126.965 60.4142 127.44 59.39C127.839 58.5365 129.018 57.3416 129.664 57.4554C131.185 57.7209 130.805 59.2003 130.881 60.7935C130.026 61.3246 129.075 62.4436 128.352 62.2919ZM128.847 53.3016C129.493 52.2964 131.394 51.8602 133.049 52.3154C134.379 52.6947 135.064 53.681 135.235 55.6156C133.727 54.1362 131.604 53.3585 128.866 53.2827L128.847 53.3016ZM143.753 256.379C142.327 252.908 140.977 249.4 139.589 245.91C139.532 245.739 139.342 245.625 139.228 245.492C139.095 245.056 138.961 244.639 138.809 244.203C138.296 243.027 137.726 241.851 137.288 240.656C134.988 234.492 132.668 228.346 130.482 222.144C127.972 215.051 129.379 208.526 133.904 202.665C138.999 196.065 144.209 189.54 149.361 182.978C149.685 182.56 150.122 182.2 150.882 182.067C150.464 182.826 150.122 183.642 149.609 184.343C145.122 190.697 140.673 197.089 136.091 203.367C131.68 209.399 130.482 215.733 133.163 222.846C135.653 229.465 137.878 236.199 140.216 242.894C142.118 248.337 144.038 253.781 145.92 259.224C146.11 259.793 146.243 260.4 145.996 261.159C145.236 259.585 144.399 258.029 143.734 256.417L143.753 256.379Z" fill="#C28C70"/>
<path d="M141.338 262.921C126.623 260.133 118.371 254.879 107.553 247.881C107.154 247.615 106.603 247.558 106.108 247.426C106.032 247.407 105.975 247.369 105.918 247.312C105.234 246.534 104.549 245.775 103.846 244.998C103.694 244.827 103.732 244.562 103.922 244.429C104.34 244.163 104.815 243.898 104.91 243.537C105.462 241.489 106.032 239.403 106.241 237.297C107.021 229.521 107.686 221.725 108.39 213.93V213.892C108.39 211.54 108.428 209.207 108.447 206.855C108.447 199.458 108.485 192.042 108.504 184.645C108.504 184.569 108.504 184.513 108.561 184.456L108.903 168.941C108.941 168.391 108.96 167.841 109.055 167.31C110.082 160.956 110.614 154.45 112.268 148.248C114.911 138.271 118.371 128.485 121.337 118.584C122.687 114.051 123.048 109.366 122.725 104.624C122.516 101.647 122.497 98.6688 122.383 95.691V95.5961L121.813 93.5288V93.4908C121.451 91.0441 121.09 88.6164 120.729 86.1886C120.729 86.1127 120.729 86.0369 120.767 85.98C120.9 85.6955 121.033 85.411 121.204 85.0127C121.318 84.7471 121.109 84.4437 120.824 84.4816C120.158 84.5575 119.626 84.5954 119.094 84.6713C113.447 85.4868 107.8 86.3593 102.135 87.118C100.461 87.3456 98.7503 87.3645 97.0582 87.3076C93.9211 87.1938 92.4952 86.2076 91.3734 83.3056C91.2974 83.1349 91.1263 83.0401 90.9361 83.0591C81.9812 84.7282 74.6234 81.409 68.1781 75.4724C67.969 75.2827 68.026 74.9602 68.2732 74.8464C71.5243 73.405 74.8135 72.0583 77.9886 70.4651C79.5856 69.6685 81.2968 68.4167 80.8024 66.2734C80.3271 64.244 78.2928 64.0354 76.5626 63.7698C75.3078 63.5802 74.053 63.4664 72.7791 63.3336C72.3989 63.2957 72.3038 62.8025 72.627 62.6318C76.6197 60.4696 80.5553 58.1367 84.719 56.3728C91.3354 53.5657 98.1799 51.2707 104.929 48.7481H105.005C110.443 47.5153 115.9 46.3204 121.356 45.1065H121.432L124.208 45.0306C124.893 45.0116 125.653 44.9737 126.357 44.9547C126.775 44.9547 127.535 44.9547 127.649 44.9547C128.163 44.9547 128.752 44.8599 129.265 44.9547C129.399 44.9737 129.551 45.0116 129.684 45.0685C132.555 45.941 135.426 46.7945 138.315 47.648C139.475 48.7291 140.635 49.8103 141.814 50.8914C142.403 51.4224 142.974 51.9725 143.563 52.5035C144.095 52.9777 144.666 53.376 144.894 54.0778C145.141 54.8365 145.312 55.5951 145.502 56.3728C145.711 57.2263 145.882 58.0988 145.882 58.9712C145.882 65.7424 145.787 72.5135 145.445 79.2657C145.027 87.5732 144.476 95.9186 147.308 103.904C149.457 109.916 152.252 115.72 154.78 121.6C155.465 123.212 156.187 124.824 156.891 126.436C157.518 127.821 158.146 129.205 158.773 130.59C165.427 144.91 170.523 159.742 172.633 175.408C173.698 183.28 173.774 191.303 174.496 199.231C174.725 201.697 175.447 204.162 176.265 206.514C182.006 223.034 193.319 233.883 210.012 239.137C213.662 240.275 217.427 241.147 221.191 241.849C230.412 243.594 238.265 240.844 245.147 234.566C249.634 230.469 254.273 226.467 259.197 222.92C265.491 218.368 272.982 216.282 280.32 214.025C285.054 212.564 289.789 210.914 294.656 210.08C299.067 209.321 303.649 209.568 308.155 209.416C308.516 209.416 308.934 209.492 309.238 209.682C309.79 210.023 310.322 210.44 310.836 210.839C311.007 210.971 311.045 211.199 310.912 211.37C310.512 211.901 310.151 212.508 309.619 212.811C304.257 215.846 298.801 218.71 293.477 221.82C289.846 223.945 286.309 226.259 282.868 228.667C277.202 232.631 272.848 237.658 269.863 243.993C266.555 251.01 262.392 257.516 256.802 263.016C249.007 270.698 239.519 274.889 228.701 275.838C213.149 277.203 198.338 274.586 184.611 266.904C178.907 263.718 173.945 259.583 169.534 254.785C169.059 254.273 168.602 253.76 168.108 253.286C168.032 253.229 167.956 253.172 167.804 253.116C167.576 253.021 167.329 253.153 167.272 253.381C167.272 253.381 167.272 253.4 167.272 253.419C166.644 256.226 164.8 258.578 162.233 259.887C157.879 262.087 150.445 264.666 141.357 262.94L141.338 262.921Z" fill="#C28C70"/>
<path d="M78.4274 70.6331C75.0812 72.3022 71.6019 73.7247 68.1796 75.242C65.0235 72.6246 64.6623 69.9882 67.0009 66.669C67.4381 66.2897 67.8754 65.9104 68.3317 65.531C69.5485 64.8292 70.7653 64.1085 71.9631 63.4067C73.6362 63.5774 75.3284 63.6912 77.0015 63.9568C78.7316 64.2223 80.7469 64.4309 81.2413 66.4604C81.7546 68.6036 80.0435 69.8365 78.4274 70.6521V70.6331Z" fill="#202020"/>
<path d="M110.025 165.037C110.025 165.037 110.025 164.98 110.025 164.942C111.051 158.588 111.584 152.121 113.219 145.937C115.861 135.961 117.611 135.316 120.557 125.396C121.907 120.863 124.873 110.28 124.968 100.91C125.025 93.7028 123.048 87.4248 122.136 84.9211C121.926 84.3521 121.147 84.2004 120.786 84.6935C111.831 96.6047 106.507 102.162 95.0806 122.02C83.6541 141.897 76.5624 169.911 78.0074 187.835C79.4523 205.759 86.0307 220.61 96.0693 233.014C98.5599 236.106 101.393 238.913 104.093 241.815C104.359 242.099 104.777 242.156 105.1 241.947C105.462 241.72 105.823 241.473 105.899 241.17C106.45 239.121 107.021 237.035 107.23 234.93C108.009 227.153 108.675 219.358 109.378 211.582C109.378 211.563 109.378 211.544 109.378 211.525C109.378 209.192 109.416 206.859 109.416 204.507C109.416 197.072 109.454 189.637 109.473 182.183L110.025 164.999V165.037Z" fill="#F9F0E4"/>
<path d="M120.408 60.9612C119.799 61.1699 119.362 62.801 119.419 63.7304C119.495 64.8494 120.199 66.2909 121.644 65.8167C122.347 65.5891 123.184 64.6408 123.107 63.2752C123.031 61.9096 121.853 60.4491 120.408 60.9612Z" fill="black"/>
<path d="M90.748 83.0777C94.2273 83.8364 98.0109 82.1673 98.5052 79.9292C96.0335 80.9344 93.4478 81.9776 90.748 83.0777Z" fill="black"/>
<path d="M124.362 56.6553C122.322 56.099 120.091 56.4593 117.67 57.7364C117.746 56.5605 119.191 55.2328 120.845 54.8345C122.176 54.5121 123.279 55.0431 124.362 56.6553Z" fill="#707070"/>
<path d="M140.522 288.903C140.066 291.369 139.59 293.815 139.153 296.281C138.659 299.101 137.011 300.479 134.21 300.416C133.449 300.416 132.689 300.416 131.947 300.321C119.247 298.595 106.527 296.907 93.8461 295.086C89.3591 294.441 89.3782 294.289 91.6597 290.401C95.6143 286.153 100.843 284.654 106.337 284.028C110.045 283.611 113.809 283.687 117.574 283.535C121.509 283.82 125.426 284.123 129.362 284.427C129.438 283.971 129.685 283.478 129.571 283.08C129.267 282.075 128.81 281.107 128.411 280.121C127.917 279.04 127.441 277.959 126.966 276.878C124.456 271.264 121.89 265.687 119.475 260.054C115.825 251.519 112.288 242.946 108.733 234.373C104.265 223.562 103.124 212.561 107.079 201.352C107.934 198.943 109.284 196.724 110.406 194.41C110.729 195.131 111.224 195.814 111.376 196.572C114.589 212.144 121.776 225.554 133.468 236.422C136.529 239.286 139.933 241.789 143.184 244.445C144.115 245.222 145.028 246.019 145.96 246.797C145.484 251.349 145.104 255.901 144.496 260.415C143.241 269.917 141.853 279.4 140.522 288.884V288.903Z" fill="#C28C70"/>
<path d="M145.446 58.2119C146.815 58.8378 148.431 58.9706 149.933 58.5343C154.724 57.1877 165.124 54.4944 166.36 53.9633C178.243 48.8043 185.239 40.0796 188.509 28.7943C189.954 23.7681 189.004 22.8008 183.357 23.0284C163.451 23.863 148.165 31.7721 138.43 48.1405C138.259 48.425 139.343 51.5166 139.989 53.6978C140.427 55.1582 141.491 56.3721 142.974 57.0549L145.427 58.1929L145.446 58.2119Z" fill="#C28C70"/>
<path d="M148.489 53.9092C149.23 54.0609 149.953 53.8902 150.751 53.5867C153.261 52.6574 158.737 50.7038 159.364 50.4003C165.543 47.3087 169.041 43.0981 170.467 38.1098C171.095 35.8907 170.562 35.5493 167.577 36.0993C157.006 37.996 145.979 40.9548 144.344 50.1348C144.173 51.1211 144.515 51.6521 144.914 52.5056C145.181 53.0936 146.321 53.435 147.12 53.6057L148.47 53.9092H148.489Z" fill="#FFFFFD"/>
<path d="M144.876 254.971C144.705 253.53 143.831 251.064 143.298 249.452C140.427 241.315 137.614 233.102 134.743 224.947C132.537 218.688 129.894 212.163 131.32 205.62C132.176 201.39 134.476 197.616 136.891 194.088C140.028 189.593 143.241 185.192 146.359 180.678C147.405 179.161 148.926 176.809 148.926 176.164C148.47 175.557 144.382 180.906 143.412 182.101C140.237 186.16 136.986 190.143 133.925 194.315C130.693 198.716 128.069 203.837 128.183 209.394C128.335 216.639 131.834 223.733 134.191 230.58C137.271 238.527 140.332 246.493 143.907 254.194C144.553 255.407 144.914 255.73 144.857 255.009L144.876 254.971Z" fill="#737373"/>
<path d="M71.7705 168.355C71.9606 168.411 72.1698 168.506 72.3599 168.506C75.4399 168.279 78.539 168.222 81.619 168.544C81.9232 168.582 82.2274 168.43 82.5506 168.355C84.2237 165.604 85.9159 162.873 87.5129 160.085C87.9692 159.288 88.5206 158.947 89.3952 158.985C90.2127 159.023 91.0302 159.061 91.8288 159.004C92.114 159.004 92.3611 158.681 92.6273 158.492C92.4372 158.245 92.3041 157.885 92.0569 157.79C91.3344 157.525 90.593 157.392 89.8515 157.202C89.6233 157.145 89.3761 157.126 89.129 157.088C89.091 157.012 89.0339 156.918 88.9959 156.842C89.2621 156.671 89.5663 156.538 89.7754 156.33C90.3838 155.761 91.0112 155.211 91.5436 154.566C91.7527 154.319 91.7337 153.864 91.8098 153.504C91.4105 153.466 90.8972 153.238 90.612 153.39C89.9085 153.769 89.3001 154.3 88.6537 154.812C88.4065 155.002 88.1974 155.267 87.8932 155.59C87.627 154.888 87.3988 154.281 87.1327 153.674C86.9616 153.295 86.7904 152.897 86.5243 152.593C86.3532 152.384 86.0299 152.328 85.7828 152.195C85.6497 152.441 85.4215 152.688 85.4215 152.953C85.4215 153.921 85.4215 154.907 85.5166 155.874C85.6687 157.543 85.1554 158.89 83.9195 160.028C81.657 162.152 79.0903 163.84 76.4666 165.491C74.9076 166.458 73.3295 167.387 71.7705 168.336V168.355Z" fill="#D3A272"/>
<path d="M89.627 220.267C90.0452 221.083 90.4825 221.898 90.9008 222.733C91.3825 223.681 92.1113 223.991 93.0872 223.662C93.3534 223.568 93.6196 223.511 93.8668 223.397C98.1636 221.443 102.479 219.49 106.757 217.498C108.278 216.796 108.24 216.739 107.023 215.601C105.179 214.52 103.164 214.558 101.168 214.919C99.8177 215.165 98.4868 215.601 97.1559 215.943C95.8061 216.474 94.4371 216.986 93.0872 217.517C93.0112 217.365 92.8781 217.214 92.8781 217.062C92.8781 216.664 92.9352 216.284 92.9732 215.886C93.0302 215.45 93.0873 215.014 93.1443 214.577C93.4295 212.339 93.7337 210.082 93.9808 207.844C94.3611 204.449 94.6843 201.035 95.0265 197.64C95.4448 193.353 94.6843 189.351 92.0796 185.805C91.5282 185.046 90.8057 184.401 90.1593 183.718C90.1213 184.003 90.0262 184.306 90.0452 184.591C90.5776 190.433 89.4749 195.933 86.5089 201.016C85.7294 202.344 84.7978 203.595 83.9422 204.885C83.695 205.265 83.4479 205.644 83.2197 206.004C83.8662 207.56 84.4936 209.134 85.197 210.651C86.661 213.875 88.163 217.081 89.646 220.286L89.627 220.267Z" fill="#D3A272"/>
<path d="M63.1415 138.5C62.5901 138.538 62.0197 138.368 61.5444 138.026C60.0614 136.945 56.8293 134.669 56.468 134.328C53.0458 131.009 51.7529 127.082 52.0952 122.777C52.2473 120.861 52.7036 120.634 54.6238 121.449C61.3923 124.313 65.6321 129.017 66.8679 135.94C66.8869 136.054 66.1074 136.983 65.6131 137.647C65.2709 138.102 64.7385 138.368 64.1491 138.425L63.1605 138.5H63.1415Z" fill="#AA895E"/>
<path d="M71.735 209.933C71.735 209.933 71.8301 209.8 71.8301 209.762C71.8871 209.572 71.8681 209.42 71.9252 209.25C72.0582 208.795 72.1913 208.32 72.2674 207.903C72.6857 205.722 73.161 203.674 73.5412 201.473C73.5983 201.246 73.6933 200.961 73.7123 200.715C73.8644 200.013 73.9025 199.368 73.8264 198.742C73.8264 198.704 73.8454 198.647 73.8264 198.59C73.7314 197.509 73.4271 196.485 72.7807 195.594C72.7807 195.556 72.7617 195.48 72.7237 195.423C72.4005 194.835 71.9442 194.304 71.3928 193.792C69.1874 191.668 66.9439 189.581 64.6814 187.514C64.5293 187.362 64.3582 187.267 64.054 187.229C64.2821 187.495 64.4532 187.779 64.6433 187.988C66.6587 190.055 68.617 192.161 70.6323 194.171C71.9632 195.499 72.7807 196.978 72.9138 198.647V198.685C73.0279 199.463 73.0089 200.259 72.8187 201.113C72.6286 202.156 72.4385 203.142 72.2484 204.186C71.9632 205.703 71.678 207.258 71.3928 208.776C71.0886 210.388 70.7844 211.943 70.4992 213.517C70.4042 214.029 70.3091 214.56 70.214 215.073C70.157 215.262 70.138 215.509 70.3091 215.793C70.4992 215.148 70.7084 214.56 70.8414 213.897C71.1837 212.55 71.4498 211.222 71.7921 209.876L71.735 209.933ZM63.3125 138.978C62.8562 139.205 62.647 139.585 62.6851 140.305C63.1667 139.673 63.8955 139.281 64.8715 139.129C64.5673 138.788 63.8828 138.75 63.3125 138.997V138.978ZM65.7081 141.254C65.575 141.007 65.2517 140.723 64.9856 140.647H64.9475C64.9475 140.647 64.9095 140.628 64.8335 140.647C64.5673 140.723 64.4722 140.893 64.4912 141.14C64.4722 141.235 64.4532 141.273 64.4722 141.386C64.5293 141.557 64.5103 141.747 64.5673 141.918C64.8715 142.107 65.3278 142.43 65.5369 142.335C66.0883 142.145 65.9552 141.557 65.7081 141.235V141.254ZM74.9101 145.654C75.2333 146.451 76.7163 146.868 77.9521 146.375C76.8684 146.128 75.8988 145.901 74.9101 145.654Z" fill="#8F8F8F"/>
<path d="M74.9101 145.654C75.2333 146.451 76.7163 146.868 77.9521 146.375C76.8684 146.128 75.8988 145.901 74.9101 145.654ZM65.7081 141.254C65.575 141.007 65.2517 140.723 64.9856 140.647H64.9475C64.9475 140.647 64.9095 140.628 64.8335 140.647C64.5673 140.723 64.4722 140.893 64.4912 141.14C64.4722 141.235 64.4532 141.273 64.4722 141.386C64.5293 141.557 64.5103 141.747 64.5673 141.918C64.8715 142.107 65.3278 142.43 65.5369 142.335C66.0883 142.145 65.9552 141.557 65.7081 141.235V141.254ZM63.3125 138.978C62.8562 139.205 62.647 139.585 62.6851 140.305C63.1667 139.673 63.8955 139.281 64.8715 139.129C64.5673 138.788 63.8828 138.75 63.3125 138.997V138.978ZM71.735 209.933C71.735 209.933 71.8301 209.8 71.8301 209.762C71.8871 209.572 71.8681 209.42 71.9252 209.25C72.0582 208.795 72.1913 208.32 72.2674 207.903C72.6857 205.722 73.161 203.674 73.5412 201.473C73.5983 201.246 73.6933 200.961 73.7123 200.715C73.8644 200.013 73.9025 199.368 73.8264 198.742C73.8264 198.704 73.8454 198.647 73.8264 198.59C73.7314 197.509 73.4271 196.485 72.7807 195.594C72.7807 195.556 72.7617 195.48 72.7237 195.423C72.4005 194.835 71.9442 194.304 71.3928 193.792C69.1874 191.668 66.9439 189.581 64.6814 187.514C64.5293 187.362 64.3582 187.267 64.054 187.229C64.2821 187.495 64.4532 187.779 64.6433 187.988C66.6587 190.055 68.617 192.161 70.6323 194.171C71.9632 195.499 72.7807 196.978 72.9138 198.647V198.685C73.0279 199.463 73.0089 200.259 72.8187 201.113C72.6286 202.156 72.4385 203.142 72.2484 204.186C71.9632 205.703 71.678 207.258 71.3928 208.776C71.0886 210.388 70.7844 211.943 70.4992 213.517C70.4042 214.029 70.3091 214.56 70.214 215.073C70.157 215.262 70.138 215.509 70.3091 215.793C70.4992 215.148 70.7084 214.56 70.8414 213.897C71.1837 212.55 71.4498 211.222 71.7921 209.876L71.735 209.933Z" fill="#D3A272"/>
<path d="M67.8762 216.848C69.1501 216.905 70.557 216.715 72.059 216.184C73.8462 215.539 75.3291 214.875 76.641 214.135C79.2077 212.675 81.147 210.93 83.5426 208.863C83.6947 208.711 83.8468 208.654 84.0179 208.597C84.0179 208.597 84.0432 208.572 84.0939 208.521C84.0939 208.521 84.189 208.389 84.189 208.351V208.313C84.3791 208.066 84.5502 207.82 84.7023 207.611C84.7784 207.535 84.7594 207.421 84.6643 207.402C84.4932 207.307 84.3031 207.251 84.246 207.137L83.9799 206.473C83.8278 206.131 83.6757 205.79 83.5806 205.411L83.4285 204.918C82.706 202.167 82.0216 199.322 81.3181 196.534C81.223 195.662 81.0519 194.808 80.8998 193.974C80.5196 191.28 80.0823 188.549 79.664 185.837L79.626 185.78L79.0366 182.575L78.6183 180.166C78.5803 179.957 78.5423 179.749 78.4852 179.578C78.3521 179.142 78.219 178.762 78.086 178.326C78.0479 178.269 78.0289 178.155 77.9909 178.099C77.9909 178.099 77.9846 178.061 77.9719 177.985C77.5346 176.524 77.1543 175.064 76.603 173.66L76.5459 173.546C76.5459 173.546 76.5269 173.433 76.4889 173.376C76.3938 173.205 76.3558 172.996 76.2417 172.807C75.6143 171.327 74.8918 169.829 74.2074 168.388C74.0173 167.989 73.7891 167.572 73.637 167.231C72.8385 165.656 72.04 164.082 71.2795 162.47C70.519 160.915 70.1577 159.208 70.0056 157.463C69.9106 156.381 69.7204 155.281 69.5873 154.2V154.162L69.6634 153.385V153.347C69.6634 152.455 69.6824 151.545 69.6824 150.654L69.6444 150.597L69.4543 150.236C69.4543 150.236 69.3972 150.122 69.4923 150.103L69.4543 150.047C69.4543 150.047 69.4923 150.047 69.5683 150.028C69.7585 150.028 69.9866 149.99 70.1767 150.009C72.2681 150.009 74.4165 150.009 76.5459 149.971C77.1543 149.952 77.7818 149.876 78.4092 149.743C79.5119 149.553 79.9872 149.098 80.2154 147.96C80.2154 147.922 80.2914 147.884 80.3294 147.903L80.3865 147.865H80.4245C83.6947 147.96 86.2043 146.367 88.2197 143.844C88.2767 143.806 88.2577 143.712 88.2006 143.731C88.188 143.655 88.169 143.617 88.1436 143.617C86.8888 143.256 85.6339 142.953 84.3981 142.555C83.7517 142.365 83.0673 141.986 83.1243 141.208C83.1433 140.772 83.4095 140.544 83.7327 140.336C83.9038 140.241 84.189 140.165 84.3981 140.127C84.8544 139.956 85.3678 139.861 85.8621 139.691C86.0332 139.634 86.0332 139.444 85.9001 139.406C84.3031 138.856 82.7821 138.23 81.147 137.813C78.5803 137.13 75.9566 136.694 73.3138 136.144C71.2604 136.011 69.1881 135.878 67.1347 135.746H66.8305L66.108 135.859C65.8419 135.878 65.5757 135.954 65.3285 135.992C65.1764 135.992 64.9102 136.03 64.8532 136.068C64.6631 136.068 64.4349 136.106 64.2828 136.163C64.2448 136.163 64.1688 136.182 64.1117 136.22C63.1231 136.694 62.0964 137.149 61.1077 137.623C61.1077 137.661 61.0317 137.699 61.0127 137.756C60.6324 138.192 60.3662 138.629 60.005 139.008C59.8339 139.254 59.6248 139.501 59.4536 139.71C59.2825 139.918 59.0924 140.108 59.0734 140.355C58.9973 140.639 59.0164 140.943 58.9783 141.227C58.9593 141.474 58.9403 141.72 58.9783 141.967C58.9593 142.062 58.9403 142.099 58.9593 142.213C59.3586 144.679 59.7578 147.126 60.2712 149.572C60.9176 152.588 61.545 155.623 60.9937 158.658C60.5374 160.971 59.8339 163.266 59.2445 165.542C59.1114 166.149 58.9403 166.794 58.7692 167.401L58.2939 169.07C56.8489 173.945 55.8793 178.952 55.7842 184.073V186.159C55.7842 189.099 56.2215 192.02 56.4306 194.96C56.4687 195.87 56.3546 196.781 56.1645 197.672C55.8793 199.228 55.461 200.669 54.8906 201.997C58.522 206.473 62.5907 211.158 66.8115 215.786L67.8762 216.943V216.848Z" fill="#D3A272"/>
<path d="M84.2244 142.618C85.5363 143.035 86.8862 143.358 88.2171 143.718C89.2248 142.58 89.2057 141.613 88.16 140.531C87.9699 140.418 87.7988 140.304 87.6087 140.19C87.1334 140 86.639 139.811 86.1637 139.621C85.5553 139.773 84.9469 139.906 84.3575 140.095C83.7491 140.285 83.0267 140.475 82.9506 141.252C82.8936 142.068 83.578 142.428 84.2054 142.618H84.2244Z" fill="#202020"/>
<path d="M77.9898 178.789C77.9898 178.789 77.9898 178.77 77.9898 178.751C77.2673 176.494 76.697 174.161 75.7653 171.998C74.2443 168.509 73.5789 168.376 71.9438 164.924C71.2023 163.35 69.5292 159.651 68.9779 156.237C68.5596 153.62 68.9208 151.211 69.1109 150.243C69.149 150.016 69.4342 149.921 69.5863 150.092C73.5219 153.923 75.7653 155.668 81.0508 162.268C86.3173 168.869 90.4811 178.694 90.9564 185.313C91.4317 191.933 89.8727 197.698 86.9067 202.782C86.1652 204.052 85.2906 205.228 84.4731 206.442C84.397 206.556 84.245 206.594 84.1119 206.537C83.9598 206.48 83.8267 206.404 83.7696 206.29C83.4464 205.57 83.1232 204.849 82.9331 204.09C82.2106 201.302 81.5452 198.495 80.8417 195.688C80.8417 195.688 80.8417 195.688 80.8417 195.669C80.7086 194.815 80.5755 193.962 80.4234 193.108C80.0051 190.396 79.5869 187.684 79.1496 184.972L77.9898 178.732V178.789Z" fill="#F9EAD9"/>
<path d="M72.8928 180.935L68.4629 174.372L73.3111 173.974L77.4178 173.386L79.7564 172.798L82.171 172.021L83.2166 171.186L84.1292 169.82L85.4221 166.786L85.9545 166.198L86.2016 166.217L86.5438 166.634L86.6769 167.696L86.5819 169.858L86.772 169.972L87.8747 169.593L89.795 169.289L90.6125 169.365L91.0118 169.726L90.8027 170.295L90.3083 170.731L88.5782 171.395L86.9621 171.717L87.7226 172.305L89.3767 173.766L89.5859 174.391L89.2056 174.828L88.369 174.695L85.8214 173.443H85.0038L84.0152 174.145L81.7147 175.719L75.6687 179.588L72.8928 180.935Z" fill="#D3A272"/>
<path d="M72.8956 181.122C72.8956 181.122 72.9717 181.122 72.9907 181.122C75.8616 179.794 78.5234 178.106 81.1471 176.323C81.9837 175.754 82.8012 175.147 83.6187 174.54C83.8469 174.388 84.1321 174.294 84.3032 174.104C84.9306 173.44 85.6151 173.402 86.3756 173.819C87.022 174.161 87.6684 174.521 88.3529 174.825C88.6381 174.957 88.9803 175.033 89.2655 174.995C89.8168 174.938 90.064 174.464 89.7218 174.047C89.2275 173.44 88.619 172.947 88.0487 172.435C87.8776 172.283 87.6874 172.169 87.4213 171.999C87.3262 171.923 87.3452 171.771 87.4593 171.752C88.1437 171.6 88.7331 171.467 89.3035 171.335C89.3035 171.335 89.3225 171.335 89.3415 171.335C89.7028 171.145 90.121 171.012 90.4252 170.766C90.7104 170.519 91.0907 170.159 91.0907 169.836C91.1097 169.324 90.5964 169.116 90.14 169.154C89.2465 169.248 88.3719 169.419 87.4783 169.571C87.3072 169.609 87.1551 169.666 86.9269 169.76C86.8319 169.798 86.7368 169.723 86.7368 169.628C86.7558 169.154 86.7938 168.755 86.7938 168.338C86.7938 167.807 86.7938 167.257 86.6988 166.745C86.6417 166.498 86.4136 166.271 86.2235 166.043C86.1854 165.986 86.1094 165.986 86.0333 166.024C85.7862 166.176 85.501 166.309 85.3869 166.536C84.9496 167.371 84.6074 168.262 84.2271 169.135C84.1511 169.324 84.037 169.495 83.942 169.685C83.3145 171.392 81.8886 172.112 80.2725 172.549C76.5841 173.535 72.8006 173.952 68.9981 174.161C68.7889 174.161 68.5798 174.199 68.3707 174.237C68.1995 174.275 68.2376 174.521 68.4087 174.521C71.964 174.331 75.4814 173.971 78.9416 173.174C80.0444 172.928 81.1091 172.492 82.1548 172.093C83.1054 171.733 83.6758 170.974 84.056 170.083C84.5313 169.002 84.9876 167.921 85.482 166.84C85.558 166.65 85.7291 166.517 85.9002 166.365C85.9573 166.308 86.0523 166.308 86.1094 166.365C86.2615 166.555 86.4516 166.745 86.4516 166.934C86.4896 167.769 86.4326 168.585 86.3946 169.419C86.3946 169.609 86.3566 169.798 86.3185 170.026C86.3185 170.14 86.4136 170.216 86.5086 170.178C87.098 169.931 87.5924 169.704 88.1247 169.59C88.7902 169.438 89.4936 169.419 90.1781 169.419C90.3872 169.419 90.7104 169.628 90.7485 169.798C90.7865 169.969 90.5964 170.31 90.4252 170.405C89.8739 170.69 89.2845 170.936 88.6951 171.107C88.0677 171.297 87.4403 171.43 86.6988 171.6C86.5847 171.619 86.5467 171.771 86.6417 171.847C87.3262 172.34 87.9346 172.757 88.543 173.212C88.8092 173.421 89.0563 173.687 89.2465 173.971C89.3415 174.123 89.3415 174.426 89.2465 174.597C89.2084 174.673 88.8472 174.692 88.6951 174.635C88.1627 174.407 87.6494 174.142 87.1171 173.895C86.7748 173.743 86.4516 173.573 86.1094 173.421C85.3869 173.118 84.7215 173.118 84.1511 173.762C83.942 174.009 83.6568 174.18 83.4096 174.388C82.0597 175.28 80.7288 176.209 79.3599 177.082C77.2305 178.447 75.1581 179.87 72.8006 180.837C72.6675 180.894 72.6675 181.103 72.8196 181.122H72.8956Z" fill="#737373"/>
<path d="M64.5474 141.931C64.8897 142.083 65.2889 142.424 65.5551 142.348C66.0875 142.159 65.9544 141.59 65.7262 141.248C65.5361 140.964 65.0418 140.584 64.8136 140.66C64.2813 140.85 64.4904 141.362 64.5474 141.95V141.931Z" fill="#202020"/>
<path d="M62.6859 140.305C63.1549 139.685 63.8837 139.287 64.8724 139.11C64.5872 138.787 63.8647 138.731 63.2943 138.977C62.838 139.186 62.6289 139.584 62.6859 140.305Z" fill="black"/>
<path d="M64.6591 142.179C65.0203 142.691 65.5907 142.805 65.9139 142.691C66.5793 142.464 66.4082 141.724 66.123 141.307C65.8759 140.946 65.2484 140.472 64.9823 140.567C64.3168 140.795 64.2978 141.667 64.6591 142.179Z" fill="black"/>
<path d="M77.4375 147.113C77.7417 147.89 79.2247 148.308 80.4415 147.834C79.3958 147.587 78.3881 147.34 77.4375 147.113Z" fill="black"/>
<path d="M62.6859 140.305C63.1549 139.685 63.8837 139.287 64.8724 139.11C64.5872 138.787 63.8647 138.731 63.2943 138.977C62.838 139.186 62.6289 139.584 62.6859 140.305Z" fill="#707070"/>
<path d="M67.8733 216.855C69.9457 219.036 72.0751 221.237 74.1855 223.323L74.5277 222.128C75.0981 219.947 75.7065 217.785 76.2959 215.547C76.429 215.091 76.505 214.617 76.6381 214.143C77.3416 211.298 78.1021 208.472 78.7675 205.608C79.8132 201.416 79.6231 197.319 77.5127 193.488C77.1134 192.635 76.467 191.895 75.9347 191.136C75.8586 191.421 75.7255 191.686 75.7065 191.971C75.5164 195.309 74.851 198.514 73.5581 201.435C73.482 201.72 73.368 201.928 73.1969 202.175V202.27C72.9307 202.953 72.5885 203.597 72.2272 204.204C72.0941 204.47 71.9991 204.679 71.8279 204.887V204.982C71.2195 205.968 70.5731 206.822 69.8697 207.732C68.919 208.965 67.8163 210.046 66.7896 211.203C66.5044 211.526 66.2002 211.886 65.915 212.208C66.2192 213.403 66.4854 214.56 66.8276 215.698L67.8923 216.855H67.8733Z" fill="#D3A272"/>
<path d="M59.1097 141.821C58.6344 142.124 58.064 142.257 57.4937 142.2C55.6685 141.972 51.7329 141.574 51.2575 141.441C46.6375 140.227 43.5955 137.439 41.7703 133.494C40.9527 131.749 41.2569 131.332 43.3293 131.104C50.6301 130.289 56.6571 132.337 61.1061 137.762C61.1821 137.857 60.954 139.033 60.8399 139.867C60.7638 140.417 60.4406 140.929 59.9463 141.252L59.1097 141.802V141.821Z" fill="#D3A272"/>
<path d="M57.7416 140.415C57.4754 140.51 57.2093 140.491 56.9051 140.415C55.9354 140.206 53.844 139.808 53.5779 139.732C51.1443 138.954 49.6423 137.608 48.8437 135.882C48.4825 135.104 48.6726 134.952 49.7944 134.99C53.749 135.085 57.9317 135.559 59.0535 138.821C59.1676 139.182 59.0725 139.39 58.9774 139.713C58.9204 139.941 58.5211 140.13 58.2359 140.244L57.7606 140.434L57.7416 140.415Z" fill="#FFFFFD"/>
<path d="M70.3085 213.511C70.3085 213.777 70.4416 213.644 70.6127 213.17C71.4873 210.173 72.1527 207.081 72.8371 204.028C73.3125 201.391 74.187 198.622 73.8448 195.967C73.5786 193.937 72.3238 192.211 70.9169 190.789C69.567 189.442 68.1601 188.171 66.7721 186.863C66.3539 186.483 64.5667 184.757 64.4336 185.004C64.4716 185.251 65.1561 186.009 65.6314 186.502C67.0193 187.963 68.4452 189.404 69.8332 190.865C70.9169 192.022 71.9626 193.255 72.5139 194.753C73.3885 197.067 72.7991 199.589 72.3428 201.998C71.7534 205.128 71.1831 208.276 70.5937 211.406C70.4796 212.032 70.3085 212.98 70.3275 213.511H70.3085Z" fill="#737373"/>
<path d="M108.334 243.71C108.276 244.45 107.592 244.943 106.87 244.848C98.8082 243.463 89.4921 237.242 80.347 229.124C78.75 227.721 77.1719 226.223 75.6129 224.686C75.1376 224.25 74.6623 223.814 74.1869 223.34C72.0765 221.253 69.9661 219.053 67.8748 216.872C67.5325 216.474 67.1523 216.075 66.8101 215.715C62.5703 211.068 58.5206 206.383 54.8892 201.926C48.501 194.131 43.3295 187.189 40.2685 182.978C39.47 181.897 40.5917 180.569 41.8085 181.063C45.8962 182.713 50.6874 183.623 55.7828 183.964C63.0456 184.42 71.0308 183.794 78.7309 182.58C78.826 182.599 78.9211 182.58 79.0351 182.58C82.7996 181.992 86.5641 181.271 90.0814 180.475C101.85 177.914 111.775 174.69 115.767 173.324C116.661 173.021 117.536 173.779 117.422 174.747L108.353 243.748L108.334 243.71Z" fill="#C28C70"/>
<path d="M140.102 155.562L127.021 138.548L121.831 150.668L116.792 160.702L113.275 166.202L109.168 171.721L106.126 173.713L101.81 174.87L92.8935 175.572L90.9162 176.463L90.7451 177.051L91.5436 178.303L94.1484 179.593L99.8331 181.205L99.9472 181.755L98.0459 184.277L95.5933 188.905L95.099 191.086L95.6694 192.414L97.3235 192.376L98.8825 191.504L102.077 187.615L104.282 183.727L105.157 186.193L107.514 191.693L108.94 192.793L110.404 192.186L110.765 189.929L109.72 182.324L110.423 180.218L113.066 178.284L119.112 173.694L134.303 161.498L140.102 155.562Z" fill="#C28C70"/>
<path d="M140.596 155.698C140.596 155.792 140.539 155.887 140.482 155.963C134.607 162.203 127.953 167.571 121.146 172.768C118.96 174.437 116.678 175.992 114.454 177.585C114.454 177.585 114.454 177.585 114.435 177.604C113.864 178.078 113.351 178.685 112.704 178.989C110.461 180.032 109.777 181.739 110.176 184.053C110.518 186.025 110.879 187.998 111.088 189.971C111.183 190.805 111.088 191.753 110.765 192.474C110.138 193.821 108.712 194.048 107.913 192.835C106.792 191.071 106.031 189.079 105.194 187.145C104.947 186.594 104.814 185.988 104.605 185.172C104.529 184.85 104.092 184.793 103.902 185.077C102.932 186.689 102.095 188.093 101.259 189.477C101.259 189.496 101.221 189.534 101.202 189.553C100.403 190.35 99.7189 191.279 98.8062 191.848C97.9317 192.398 96.6959 193.024 95.8593 192.797C94.5094 192.417 94.4143 190.9 94.9277 189.762C95.9353 187.562 97.1331 185.438 98.2929 183.313C98.5211 182.896 98.8443 182.555 99.2245 182.08C99.3956 181.872 99.3006 181.549 99.0344 181.473C97.7986 181.132 96.7149 180.867 95.6692 180.506C94.3003 180.051 92.8933 179.634 91.6575 178.913C91.0491 178.553 90.6879 177.756 90.2696 177.073C90.1745 176.921 90.2126 176.694 90.3647 176.58C90.9731 176.087 91.5815 175.442 92.2469 175.347C94.7946 174.968 97.3803 174.854 99.947 174.626C100.498 174.57 101.05 174.456 101.601 174.38H101.639C106.601 174.247 109.662 171.174 112.172 167.4C117.895 158.789 122.173 149.439 125.994 139.86C126.203 139.348 126.432 138.836 126.717 138.343C126.945 137.945 127.572 138.248 127.401 138.665C123.865 147.618 119.91 156.361 114.91 164.593C113.313 167.191 111.298 169.562 109.358 171.933C107.628 174.057 105.194 174.854 102.552 175.12C99.3576 175.423 96.1635 175.651 92.9884 175.992C92.456 176.049 91.9427 176.371 91.4104 176.637C91.2202 176.751 91.1442 176.997 91.2773 177.187C91.6385 177.737 91.9617 178.363 92.456 178.553C94.5664 179.33 96.7529 179.899 98.9203 180.525C99.4146 180.658 99.909 180.753 100.574 180.867C100.86 180.923 100.974 181.265 100.784 181.492C99.6618 182.801 98.5971 183.863 97.8556 185.134C96.905 186.727 96.2395 188.51 95.6311 190.274C95.46 190.786 95.7072 191.829 96.1065 192.057C96.5247 192.304 97.5704 192.114 97.9507 191.735C99.1485 190.559 100.27 189.269 101.24 187.903C102.267 186.462 103.141 184.944 104.206 183.218C104.377 182.934 104.795 182.991 104.89 183.294C105.556 185.475 106.145 187.429 106.811 189.345C107.115 190.217 107.571 191.071 108.16 191.772C108.484 192.171 109.225 192.398 109.757 192.341C110.005 192.322 110.347 191.412 110.309 190.938C110.195 189.383 109.929 187.827 109.738 186.272C109.624 185.286 109.491 184.281 109.396 183.275C109.225 181.151 109.776 179.444 111.963 178.553C112.761 178.23 113.446 177.642 114.187 177.187C114.187 177.187 114.187 177.187 114.206 177.187C117.667 174.494 121.184 171.857 124.606 169.107C129.93 164.821 135.424 160.705 139.892 155.47C140.159 155.166 140.653 155.375 140.634 155.773L140.596 155.698Z" fill="#737373"/>
</g>
<defs>
<clipPath id="clip0_1644_23037">
<rect width="218" height="198" rx="19.5224" fill="white"/>
</clipPath>
</defs>
</svg>
