<svg width="87" height="87" viewBox="0 0 87 87" fill="none" xmlns="http://www.w3.org/2000/svg">
<path d="M54.2049 43.2221C54.3006 43.3004 54.3876 43.4222 54.5007 43.457C56.3451 44.1356 58.1547 44.9099 59.8599 45.9017C60.0252 45.9974 60.2514 45.9887 60.4428 46.0322C62.1306 44.8664 63.8358 43.7267 65.4975 42.5261C65.976 42.1781 66.3849 42.1259 66.8808 42.3782C67.3419 42.6044 67.803 42.848 68.2815 43.0307C68.4468 43.0916 68.673 42.9785 68.8731 42.9437C68.8296 42.7523 68.847 42.5087 68.7252 42.3956C68.3772 42.0563 67.977 41.7779 67.5942 41.4734C67.4724 41.3777 67.3332 41.2994 67.2027 41.2124C67.2027 41.1515 67.194 41.0906 67.1853 41.0297C67.3854 41.0036 67.5855 41.0036 67.7769 40.9427C68.2815 40.7774 68.7861 40.6121 69.2646 40.3859C69.456 40.2989 69.5517 40.0292 69.6909 39.8378C69.4647 39.7073 69.2385 39.4463 69.021 39.4637C68.5164 39.4985 68.0118 39.6551 67.5159 39.7769C67.3158 39.8291 67.1331 39.9248 66.8721 40.0292C66.8982 39.5507 66.9243 39.1331 66.933 38.7242C66.933 38.4632 66.933 38.1848 66.8721 37.9325C66.8286 37.7759 66.6633 37.6454 66.5502 37.5062C66.411 37.6193 66.2109 37.7063 66.1413 37.8455C65.8803 38.411 65.6367 38.9765 65.4279 39.5681C65.0799 40.5773 64.4274 41.2211 63.4095 41.5691C61.539 42.2042 59.5989 42.5261 57.6588 42.7958C56.5017 42.9524 55.3446 43.0829 54.1875 43.2221H54.2049Z" fill="#D3A272"/>
<path d="M50.9185 78.0972C50.9533 78.6888 50.9881 79.2717 51.0142 79.8633C51.0432 80.5361 51.3854 80.9073 52.0408 80.9769C52.2148 80.9943 52.3975 81.0204 52.5715 81.0204C55.5817 81.0117 58.5919 81.003 61.6021 80.9682C62.6635 80.9595 62.6635 80.916 62.2546 79.9416C61.4629 78.828 60.2971 78.3234 59.0356 78.0015C58.183 77.7927 57.3043 77.6883 56.4343 77.5404C55.5121 77.4882 54.5899 77.436 53.6677 77.3838C53.6677 77.2794 53.6242 77.1489 53.6677 77.0619C53.7721 76.8357 53.9026 76.6269 54.0244 76.4094C54.1723 76.1745 54.3202 75.9309 54.4594 75.696C55.2163 74.4693 55.9819 73.2426 56.7214 71.9985C57.835 70.1193 58.9225 68.2314 60.01 66.3435C61.3846 63.9597 61.9849 61.428 61.4107 58.6962C61.2889 58.1133 61.0366 57.5478 60.8452 56.9736C60.7495 57.1302 60.6103 57.2781 60.5494 57.4521C59.3227 60.9843 57.2347 63.8901 54.181 66.0738C53.3806 66.648 52.5106 67.1265 51.6754 67.6485C51.4318 67.8051 51.1969 67.953 50.9533 68.1096C50.9272 69.1884 50.875 70.2585 50.875 71.3373C50.875 73.5906 50.9011 75.8439 50.9272 78.0972H50.9185Z" fill="#D3A272"/>
<path d="M57.0526 23.6266C56.722 23.5048 56.4349 23.2612 56.2522 22.9393C55.678 21.9214 54.3991 19.7464 54.286 19.4593C53.1724 16.6318 53.4595 14.0131 54.7906 11.5945C55.3822 10.5157 55.7041 10.5157 56.6002 11.4901C59.767 14.9266 60.9937 18.7807 59.8888 23.122C59.8714 23.2003 59.1754 23.5309 58.7056 23.7832C58.3924 23.9572 58.0096 23.9746 57.6529 23.8441L57.0526 23.6266Z" fill="#AD745E"/>
<path d="M40.8359 70.4249C41.1056 70.1117 41.3927 69.8159 41.645 69.494C42.1844 68.798 42.7151 68.0846 43.2545 67.3886C43.2806 67.3538 43.3241 67.3364 43.3676 67.319C43.4285 67.232 43.4807 67.145 43.5416 67.0493C43.733 66.8144 43.9331 66.5882 44.1158 66.3446C45.0206 65.0918 45.9428 63.8477 46.8302 62.5775C47.8481 61.1246 47.9438 59.5586 47.2913 57.9491C46.5605 56.1308 45.7949 54.3212 45.0467 52.5116C44.9945 52.3985 44.9249 52.2854 44.7596 52.2071C44.8031 52.4072 44.8379 52.616 44.8988 52.8074C45.5078 54.53 46.1081 56.2613 46.7519 57.9752C47.3696 59.6195 47.2304 61.1333 46.1777 62.5688C45.1946 63.9086 44.2637 65.3006 43.3154 66.6665C42.5411 67.7801 41.7668 68.8937 40.9925 70.0073C40.9142 70.1204 40.8446 70.2509 40.8533 70.4423L40.8359 70.4249ZM56.3045 24.5498C56.7395 24.312 57.2673 24.2714 57.8879 24.428C57.8096 24.1583 57.4007 23.9408 57.0005 23.9408C56.6786 23.9408 56.4611 24.1235 56.2958 24.5498H56.3045ZM56.957 25.9853C57.1136 26.1593 57.2615 26.4725 57.4355 26.4812C57.7922 26.516 57.8705 26.1419 57.827 25.8809C57.7922 25.6634 57.6008 25.3154 57.4529 25.298C57.0962 25.2632 57.0875 25.6199 56.9657 25.9766L56.957 25.9853ZM61.9943 30.866C61.9682 31.4054 62.7164 32.0231 63.5516 32.0666C63.0122 31.649 62.4902 31.2488 61.9943 30.866Z" fill="#8F8F8F"/>
<path d="M61.9961 30.866C62.492 31.2488 63.014 31.649 63.5534 32.0666C62.7182 32.0231 61.97 31.3967 61.9961 30.866ZM56.9588 25.9853C57.0806 25.6286 57.0893 25.2719 57.446 25.3067C57.5939 25.3241 57.7853 25.6721 57.8201 25.8896C57.8636 26.1506 57.7853 26.516 57.4286 26.4899C57.2546 26.4725 57.1154 26.168 56.9501 25.994L56.9588 25.9853ZM56.3063 24.5498C56.4629 24.1148 56.6891 23.9408 57.011 23.9408C57.4112 23.9408 57.8114 24.1583 57.8984 24.428C57.272 24.2714 56.7442 24.312 56.315 24.5498H56.3063ZM40.8377 70.4249C40.8377 70.2335 40.8986 70.103 40.9769 69.9899C41.7512 68.8763 42.5255 67.7627 43.2998 66.6491C44.2568 65.2832 45.179 63.8999 46.1621 62.5514C47.2148 61.1072 47.3453 59.5934 46.7363 57.9578C46.1012 56.2439 45.5009 54.5213 44.8832 52.79C44.8136 52.5986 44.7875 52.3898 44.744 52.1897C44.9093 52.268 44.9789 52.3811 45.0311 52.4942C45.788 54.3038 46.5449 56.1134 47.2757 57.9317C47.9282 59.5499 47.8325 61.1159 46.8146 62.5601C45.9272 63.8303 45.0137 65.0744 44.1002 66.3272C43.9262 66.5708 43.7174 66.797 43.526 67.0319C43.4651 67.1189 43.4129 67.2059 43.352 67.3016C43.3172 67.3277 43.265 67.3451 43.2389 67.3712C42.6995 68.0759 42.1775 68.7806 41.6294 69.4766C41.3771 69.7985 41.09 70.0943 40.8203 70.4075L40.8377 70.4249Z" fill="#D3A272"/>
<path d="M41.7804 71.129C45.2865 71.4248 47.4789 70.7549 50.376 69.8588C50.4804 69.824 50.6109 69.8414 50.7327 69.8414C50.7501 69.8414 50.7675 69.8414 50.7849 69.824C50.985 69.6935 51.1938 69.563 51.3939 69.4325C51.4374 69.4064 51.4461 69.3368 51.4113 69.302C51.333 69.215 51.246 69.128 51.246 69.041C51.246 68.5451 51.2547 68.0318 51.3417 67.5446C51.6549 65.735 52.0029 63.9254 52.3335 62.1158C52.4814 61.5764 52.6206 61.0457 52.7685 60.5063C53.2383 58.8272 53.6994 57.1481 54.1692 55.469C54.1692 55.4516 54.1692 55.4342 54.1692 55.4168L55.074 51.8759C55.1001 51.7541 55.1262 51.6236 55.1436 51.4931C55.3176 49.988 55.6047 48.4829 55.6308 46.9778C55.6656 44.5505 55.5003 42.1145 55.4655 39.6872C55.4481 38.5736 55.6656 37.4861 56.0397 36.4334C56.2746 35.7722 56.466 35.0936 56.6835 34.4324V34.4063L56.9445 33.9713C57.1794 33.4319 57.4143 32.9099 57.6492 32.3792C57.6492 32.3618 57.6579 32.3444 57.6492 32.327C57.6405 32.2574 57.6231 32.1791 57.6144 32.0834C57.6057 32.0138 57.6753 31.9616 57.7362 31.9877C57.8841 32.0486 57.9972 32.0921 58.119 32.1443C59.3457 32.6837 60.5637 33.2405 61.7991 33.7712C62.1645 33.9278 62.5473 34.0409 62.9388 34.1366C63.6609 34.3106 64.0437 34.1714 64.4787 33.5885C64.5048 33.5537 64.5483 33.545 64.5918 33.5624C66.5058 34.502 68.385 34.2149 70.212 33.284C70.2729 33.2579 70.2816 33.1796 70.2294 33.1361C69.5856 32.6054 68.9244 32.0921 68.3154 31.5353C68.0022 31.2569 67.6977 30.8654 67.95 30.413C68.1849 29.9867 68.6547 30.065 69.0636 30.1172C69.3594 30.152 69.6552 30.2042 69.9423 30.2564C70.0293 30.2738 70.0815 30.1694 70.0206 30.1085C69.255 29.369 68.5155 28.586 67.6803 27.9248C66.3579 26.8721 64.9572 25.9151 63.5913 24.9146H63.5739C62.4168 24.2882 61.2597 23.6705 60.1026 23.0528H60.0852L59.4588 22.8527C59.3022 22.8005 59.1369 22.7483 58.9803 22.6961C58.8846 22.67 58.7106 22.6178 58.6932 22.6178C58.5801 22.583 58.4496 22.5308 58.3278 22.5134C58.293 22.5134 58.2582 22.5134 58.2234 22.5134C57.5187 22.5308 56.814 22.5395 56.1093 22.5569C55.7787 22.7309 55.4481 22.9049 55.1175 23.0702C54.9522 23.1572 54.7869 23.2442 54.6216 23.3225C54.4737 23.4008 54.3171 23.453 54.2214 23.5922C54.117 23.7488 54.03 23.9141 53.943 24.0707C53.8386 24.2534 53.7516 24.4361 53.6907 24.6362C53.2644 26.1674 52.8555 27.7073 52.4988 29.2646C52.0638 31.1786 51.6636 33.1013 50.5152 34.7282C49.6452 35.9549 48.6447 37.0946 47.7051 38.2691C47.4441 38.591 47.1831 38.9129 46.9221 39.2261C46.6959 39.5045 46.461 39.7742 46.2348 40.0526C43.8249 42.8714 41.7282 45.9164 40.2579 49.3355C39.5184 51.0581 38.9964 52.8677 38.3265 54.6164C38.1177 55.1558 37.7958 55.6691 37.4652 56.1563C35.1162 59.5319 31.8711 61.2806 27.7734 61.4111C26.8773 61.4372 25.9725 61.3937 25.0764 61.3154C22.884 61.124 21.2832 60.0104 20.1261 58.1486C19.3692 56.9393 18.5775 55.7387 17.6901 54.6164C16.5504 53.1896 14.9931 52.2413 13.4793 51.2669C12.4962 50.6405 11.5392 49.9619 10.4865 49.466C9.53821 49.0136 8.48551 48.7874 7.47631 48.4568C7.39801 48.4307 7.29361 48.4307 7.21531 48.4568C7.06741 48.5003 6.92821 48.5612 6.78031 48.6134C6.73681 48.6308 6.71071 48.683 6.72811 48.7265C6.78031 48.8744 6.82381 49.031 6.92821 49.1354C7.94611 50.162 8.99881 51.1538 10.008 52.1978C10.6953 52.9112 11.3478 53.6594 11.9742 54.4163C13.0095 55.6691 13.6707 57.0872 13.9404 58.7141C14.2449 60.515 14.7756 62.255 15.6891 63.8471C16.968 66.083 18.8385 67.6316 21.231 68.5277C24.6588 69.824 28.1736 70.1633 31.7667 69.2933C33.2544 68.9279 34.6377 68.3102 35.9427 67.5011C36.0819 67.4141 36.2211 67.3271 36.3603 67.2488C36.3777 67.2401 36.4038 67.2314 36.4386 67.2314C36.4908 67.2314 36.543 67.2662 36.543 67.3271C36.543 67.3271 36.543 67.3271 36.543 67.3358C36.5082 68.0057 36.7779 68.6669 37.2738 69.1193C38.1177 69.8936 39.6315 70.9463 41.7978 71.129H41.7804Z" fill="#D3A272"/>
<path d="M68.1968 31.5322C68.8493 32.1238 69.5453 32.6632 70.2152 33.22C71.0939 32.8285 71.3462 32.2543 71.0243 31.3495C70.946 31.2364 70.8764 31.1233 70.7981 31.0102C70.5719 30.7753 70.337 30.5317 70.1108 30.2968C69.7193 30.2272 69.3278 30.1489 68.9363 30.1054C68.5274 30.0532 68.0576 29.9749 67.8227 30.4012C67.5704 30.8536 67.8836 31.2451 68.1881 31.5235L68.1968 31.5322Z" fill="#202020"/>
<path d="M55.0617 50.9303C55.0617 50.9303 55.0617 50.9129 55.0617 50.9042C55.2357 49.3991 55.5228 47.9027 55.5402 46.3976C55.575 43.9703 55.2183 43.7093 55.1835 41.282C55.1661 40.1684 55.1661 37.5845 55.7403 35.453C56.184 33.8174 57.0279 32.5211 57.3933 32.0078C57.4803 31.8947 57.663 31.9121 57.7152 32.0426C58.9854 35.3051 59.838 36.9059 61.1604 42.1259C62.4828 47.3459 62.3088 54.1493 60.8472 58.1165C59.3856 62.0837 56.9583 65.033 53.9046 67.208C53.1477 67.7474 52.3299 68.2085 51.5295 68.6957C51.4512 68.7392 51.3555 68.7305 51.2946 68.6609C51.225 68.5826 51.1641 68.513 51.1641 68.4347C51.1641 67.9388 51.1728 67.4255 51.2598 66.9383C51.573 65.1287 51.921 63.3191 52.2516 61.5095C52.2516 61.5095 52.2516 61.5008 52.2516 61.4921C52.3995 60.9614 52.5387 60.4307 52.6866 59.9C53.1564 58.2122 53.6175 56.5244 54.0873 54.8366L55.053 50.9042L55.0617 50.9303Z" fill="#F9EAD9"/>
<path d="M33.7227 73.289C33.7227 73.289 33.7486 73.289 33.7659 73.2804C33.7486 73.2804 33.7399 73.2804 33.7227 73.2804V73.289Z" fill="#868686"/>
<path d="M33.7227 73.289C33.7227 73.289 33.7486 73.289 33.7659 73.2804C33.7486 73.2804 33.7399 73.2804 33.7227 73.2804V73.289Z" fill="#8F8F8F"/>
<path d="M51.5605 50.8446L50.6992 45.8682L53.6224 46.9122L56.1541 47.643L57.6679 47.9214L59.2774 48.0954L60.1039 47.8866L60.9913 47.3298L62.5399 45.903L63.001 45.7029L63.1315 45.7725L63.2272 46.1031L63.0271 46.7643L62.4007 47.9997L62.479 48.1041L63.2185 48.1824L64.4104 48.4956L64.8628 48.7653L65.002 49.0785L64.7323 49.3482L64.3321 49.4787L63.1489 49.4091L62.131 49.1742L62.4181 49.7136L62.9923 51.0012L62.9488 51.4188L62.6182 51.5754L62.1658 51.2796L61.0174 49.8876L60.5389 49.6701L59.7907 49.818L58.0333 50.1225L53.5093 50.7924L51.5605 50.8446Z" fill="#D3A272"/>
<path d="M51.4977 50.9466C51.4977 50.9466 51.5412 50.9727 51.5586 50.9727C53.577 50.9553 55.5606 50.6682 57.5442 50.3202C58.1793 50.2071 58.8144 50.0679 59.4408 49.9374C59.6148 49.9113 59.7975 49.92 59.9541 49.8591C60.4935 49.6416 60.8937 49.7895 61.233 50.2332C61.5201 50.6073 61.7985 50.9814 62.1117 51.3381C62.2422 51.486 62.4162 51.6252 62.5989 51.6861C62.9295 51.7905 63.1992 51.5817 63.1122 51.2511C62.9904 50.7726 62.7642 50.3289 62.5641 49.8765C62.5032 49.746 62.4249 49.6242 62.3205 49.4589C62.277 49.3893 62.3379 49.311 62.4162 49.3197C62.8512 49.4067 63.2253 49.485 63.5994 49.5633H63.6168C63.8778 49.5546 64.1475 49.5807 64.3998 49.5198C64.6347 49.4589 64.9392 49.3458 65.0349 49.1631C65.1828 48.8673 64.9392 48.6063 64.6608 48.5193C64.1214 48.3366 63.5646 48.2061 63.0078 48.0669C62.9034 48.0408 62.7903 48.0408 62.6424 48.0321C62.5815 48.0321 62.538 47.9625 62.5641 47.9016C62.7033 47.6319 62.8251 47.4057 62.9295 47.1708C63.0687 46.8663 63.2253 46.5531 63.2949 46.2225C63.3297 46.0572 63.2514 45.8745 63.1992 45.6918C63.1905 45.6483 63.147 45.6222 63.1035 45.6309C62.9208 45.657 62.712 45.657 62.5902 45.7614C62.1204 46.1355 61.6854 46.5618 61.2417 46.9707C61.146 47.0577 61.0416 47.136 60.9372 47.2143C60.1194 48.0495 59.1015 48.0843 58.0575 47.919C55.6563 47.5275 53.3595 46.7706 51.0975 45.9006C50.9757 45.8571 50.8452 45.8136 50.7147 45.7788C50.6103 45.7527 50.5668 45.9093 50.6625 45.9528C52.7679 46.7706 54.9081 47.4927 57.1266 47.9364C57.8313 48.0756 58.5621 48.1104 59.2755 48.1539C59.9193 48.1974 60.45 47.9016 60.9111 47.484C61.4679 46.9794 62.0247 46.4661 62.5902 45.9789C62.6859 45.8919 62.8251 45.8571 62.9556 45.8136C63.0078 45.7962 63.06 45.8223 63.0687 45.8745C63.1035 46.0224 63.1644 46.179 63.1209 46.2921C62.9208 46.7793 62.6685 47.2491 62.4336 47.7189C62.3814 47.8233 62.3118 47.9277 62.2335 48.0582C62.1987 48.1191 62.2335 48.1887 62.3031 48.1974C62.7033 48.2148 63.06 48.1974 63.3993 48.2757C63.8256 48.3714 64.2432 48.5367 64.6434 48.7107C64.7565 48.7629 64.8957 48.9717 64.8783 49.0761C64.8522 49.1892 64.6608 49.3371 64.5303 49.3458C64.1388 49.3632 63.7299 49.3458 63.3384 49.3023C62.9295 49.2501 62.5206 49.1544 62.0595 49.0674C61.9812 49.05 61.929 49.137 61.9638 49.1979C62.2335 49.659 62.4771 50.0766 62.7033 50.4942C62.8077 50.6856 62.8773 50.9031 62.9121 51.1119C62.9295 51.2337 62.8512 51.399 62.7555 51.4773C62.712 51.5121 62.5032 51.4338 62.4249 51.3468C62.1726 51.0771 61.9464 50.79 61.7115 50.5029C61.5549 50.3202 61.407 50.1375 61.2504 49.9635C60.9111 49.5981 60.5283 49.4154 60.0237 49.6503C59.841 49.7373 59.6322 49.7634 59.4321 49.8156C58.4142 49.9809 57.3963 50.1636 56.3784 50.3202C54.7863 50.5551 53.2029 50.8422 51.5847 50.7726C51.489 50.7726 51.4455 50.8857 51.5238 50.9466H51.4977Z" fill="#737373"/>
<path d="M56.9609 25.9842C57.1175 26.1582 57.2654 26.4714 57.4394 26.4801C57.7961 26.5149 57.8744 26.1408 57.8309 25.8798C57.7961 25.6623 57.6047 25.3143 57.4568 25.2969C57.1001 25.2621 57.0914 25.6188 56.9696 25.9755L56.9609 25.9842Z" fill="#202020"/>
<path d="M56.3017 24.5498C56.7367 24.312 57.2645 24.2714 57.8851 24.428C57.8068 24.1583 57.3979 23.9408 56.9977 23.9408C56.6758 23.9408 56.4583 24.1235 56.293 24.5498H56.3017Z" fill="black"/>
<path d="M56.965 26.1611C57.0433 26.5526 57.3478 26.7701 57.5566 26.7875C58.0003 26.8223 58.1047 26.3612 58.0438 26.0393C58.0003 25.7696 57.7567 25.3346 57.5653 25.3085C57.1129 25.265 56.878 25.7609 56.9563 26.1611H56.965Z" fill="black"/>
<path d="M63.071 32.3689C63.0449 32.9083 63.7931 33.526 64.6283 33.5695C64.0889 33.1519 63.5669 32.7517 63.071 32.3689Z" fill="black"/>
<path d="M56.3017 24.5498C56.7367 24.312 57.2645 24.2714 57.8851 24.428C57.8068 24.1583 57.3979 23.9408 56.9977 23.9408C56.6758 23.9408 56.4583 24.1235 56.293 24.5498H56.3017Z" fill="#707070"/>
<path d="M60.168 79.1824C60.7248 79.6696 61.1946 80.0698 61.6818 80.4961C61.6383 79.9567 60.9336 79.3129 60.168 79.1824Z" fill="#1B1B1B"/>
<path d="M59.5781 79.7268C59.9522 79.953 60.335 80.1879 60.7613 80.4489C60.6569 79.9617 60.1784 79.6485 59.5781 79.7268Z" fill="#1E1E1E"/>
<path d="M37.8176 77.0729C37.7654 77.6558 37.7219 78.2474 37.661 78.8303C37.5972 79.5031 37.8843 79.9207 38.5223 80.0831C38.6963 80.1266 38.8616 80.1788 39.0356 80.2049C42.0197 80.6138 44.9951 81.0401 47.9792 81.4316C49.0319 81.5708 49.0406 81.536 48.7709 80.5094C48.1445 79.3001 47.057 78.6302 45.8564 78.143C45.0473 77.8124 44.186 77.5949 43.3508 77.3252C42.446 77.1425 41.5412 76.9598 40.6277 76.7771C40.6364 76.6727 40.619 76.5422 40.6625 76.4552C40.793 76.2464 40.9583 76.055 41.1149 75.8549C41.2976 75.6374 41.4716 75.4286 41.6456 75.2111C42.5678 74.0975 43.4987 73.0013 44.4035 71.8703C45.7694 70.1651 47.1179 68.4512 48.4577 66.7286C50.1542 64.5623 51.1112 62.1437 50.9198 59.351C50.8763 58.7507 50.711 58.1591 50.6066 57.5675C50.4848 57.7067 50.3369 57.8372 50.2499 57.9938C48.536 61.3172 46.0652 63.9011 42.7331 65.6237C41.8544 66.0761 40.9322 66.4328 40.0274 66.8243C39.7664 66.9461 39.5054 67.0592 39.2531 67.181C39.0704 68.2424 38.8703 69.2951 38.7224 70.3652C38.4092 72.6011 38.1134 74.837 37.8176 77.0642V77.0729Z" fill="#D3A272"/>
<path d="M46.8242 79.4484C47.3114 80.0052 47.7116 80.475 48.1379 80.9622C48.1727 80.4228 47.5637 79.6833 46.8242 79.4484Z" fill="#1B1B1B"/>
<path d="M46.1719 79.8959C46.5112 80.1743 46.8592 80.4614 47.242 80.7746C47.2159 80.27 46.7809 79.9046 46.1719 79.8959Z" fill="#1E1E1E"/>
<path d="M53.8298 24.483C53.4818 24.5439 53.1077 24.4656 52.7945 24.2742C51.794 23.6652 49.619 22.395 49.3754 22.2036C47.0177 20.2809 45.9824 17.8623 45.965 15.1044C45.9563 13.8777 46.2347 13.7124 47.4962 14.1213C51.9419 15.5655 54.8999 18.3234 56.057 22.656C56.0744 22.7343 55.6394 23.3607 55.3523 23.8131C55.1609 24.1176 54.839 24.3264 54.4649 24.3873L53.8385 24.4917L53.8298 24.483Z" fill="#D3A272"/>
<path d="M53.4125 23.324C53.2298 23.3153 53.0819 23.2283 52.9253 23.1065C52.412 22.7324 51.3071 21.9494 51.1766 21.8363C49.976 20.7488 49.454 19.5743 49.4453 18.3476C49.4453 17.8082 49.5845 17.7647 50.2283 18.0692C52.499 19.1654 54.8045 20.5313 54.587 22.715C54.5609 22.9499 54.4478 23.0456 54.3086 23.2196C54.2129 23.3327 53.9345 23.3414 53.7431 23.3327L53.4212 23.3153L53.4125 23.324Z" fill="#FFFFFD"/>
<path d="M41.482 69.1141C41.4211 69.2707 41.5255 69.2272 41.7517 68.9923C43.048 67.4785 44.2399 65.8603 45.4405 64.2595C46.4062 62.8588 47.6503 61.4755 48.1375 59.8399C48.5203 58.5871 48.2506 57.256 47.7982 56.0554C47.3719 54.9157 46.8934 53.8108 46.4323 52.6885C46.2844 52.3579 45.7102 50.8876 45.5623 50.992C45.5188 51.1399 45.7189 51.775 45.8581 52.1752C46.2757 53.3932 46.7281 54.5938 47.1457 55.8118C47.4676 56.7688 47.746 57.7606 47.6764 58.7785C47.5807 60.3532 46.5715 61.6669 45.6754 62.9458C44.5096 64.6162 43.3525 66.2953 42.1867 67.957C41.9605 68.2876 41.6125 68.7922 41.482 69.1054V69.1141Z" fill="#737373"/>
</svg>
