<svg width="145" height="145" viewBox="0 0 145 145" fill="none" xmlns="http://www.w3.org/2000/svg">
<path d="M30.6988 66.7418C30.7423 66.9883 30.8583 67.2493 30.8293 67.4813C30.2638 71.3093 29.9013 75.1518 30.0028 79.0233C30.0028 79.4003 29.7853 79.7773 29.6838 80.1543C26.0878 81.9668 22.5063 83.8373 18.8668 85.5773C17.8228 86.0703 17.3443 86.7228 17.3008 87.8248C17.2573 88.8398 17.2428 89.8548 17.0978 90.8553C17.0543 91.2033 16.6338 91.4933 16.3873 91.7978C16.1118 91.5368 15.6623 91.3338 15.5753 91.0293C15.3288 90.1158 15.1983 89.1588 15.0533 88.2163C15.0098 87.9118 14.9953 87.6073 14.9663 87.3028C14.8648 87.2448 14.7633 87.1723 14.6763 87.1143C14.4443 87.4333 14.2558 87.7813 13.9803 88.0423C13.2263 88.7528 12.4578 89.4778 11.6168 90.0868C11.2833 90.3188 10.7178 90.2463 10.2683 90.3188C10.2538 89.8113 10.0218 89.1588 10.2538 88.8108C10.7903 87.9698 11.5298 87.2448 12.2113 86.5053C12.4868 86.2153 12.8203 85.9833 13.2553 85.6353C12.4143 85.2293 11.6603 84.8958 10.9353 84.5043C10.4713 84.2578 10.0073 84.0113 9.63031 83.6488C9.39831 83.4313 9.34031 83.0108 9.19531 82.6918C9.52881 82.5613 9.86231 82.2858 10.1668 82.3148C11.3848 82.3873 12.6028 82.5033 13.8063 82.7063C15.8653 83.0543 17.6053 82.5323 19.1568 81.1113C22.0133 78.4868 24.3913 75.4418 26.6823 72.3388C28.0453 70.4973 29.3503 68.6123 30.6843 66.7418H30.6988Z" fill="#C28C70"/>
<path d="M49.7671 135.573C49.7091 136.733 49.6511 137.878 49.5931 139.038C49.5351 140.363 48.8681 141.097 47.5921 141.242C47.2441 141.286 46.8961 141.344 46.5481 141.344C40.6321 141.344 34.7161 141.344 28.8146 141.315C26.7266 141.3 26.7266 141.228 27.5241 139.299C29.0756 137.11 31.3666 136.095 33.8316 135.471C35.4991 135.051 37.2246 134.848 38.9356 134.558C40.7481 134.442 42.5606 134.34 44.3731 134.239C44.3731 134.021 44.4601 133.789 44.3731 133.615C44.1701 133.166 43.9091 132.76 43.6626 132.325C43.3726 131.861 43.0826 131.397 42.7926 130.933C41.2991 128.526 39.7766 126.119 38.3266 123.683C36.1371 120 33.9766 116.288 31.8161 112.59C29.1046 107.921 27.8866 102.948 29.0031 97.5683C29.2351 96.4083 29.7281 95.3063 30.0906 94.1898C30.2791 94.4943 30.5546 94.7843 30.6706 95.1178C33.1066 102.049 37.2246 107.747 43.2421 112.01C44.8226 113.127 46.5336 114.069 48.1866 115.084C48.6651 115.389 49.1291 115.693 49.6076 115.983C49.6656 118.1 49.7816 120.203 49.7816 122.32C49.7816 126.742 49.7526 131.179 49.7381 135.616L49.7671 135.573Z" fill="#C28C70"/>
<path d="M37.3376 28.5917C37.9901 28.3452 38.5556 27.8668 38.9036 27.2288C40.0201 25.2278 42.5286 20.9502 42.7461 20.3702C44.9211 14.8022 44.3411 9.66925 41.7021 4.92775C40.5276 2.81075 39.9041 2.81075 38.1351 4.73925C31.9291 11.5252 29.5511 19.0942 31.7551 27.6202C31.7986 27.7652 33.1616 28.4178 34.0751 28.9253C34.6986 29.2588 35.4381 29.3023 36.1486 29.0413L37.3231 28.6063L37.3376 28.5917Z" fill="#8E6451"/>
<path d="M69.2365 119.58C67.714 117.39 66.177 115.215 64.64 113.04C62.755 110.358 60.928 107.646 58.985 105.022C56.897 102.194 56.636 99.2215 57.825 95.9881C59.072 92.6241 60.232 89.2166 61.421 85.8236C61.5515 85.4466 61.6095 85.0406 61.6965 84.6491C61.3775 84.8086 61.2325 85.0261 61.1455 85.2436C59.681 88.8106 58.202 92.3631 56.7665 95.9446C55.4905 99.1201 55.6935 102.194 57.709 105.051C59.4635 107.53 61.276 109.981 63.074 112.431C63.422 112.91 63.828 113.359 64.205 113.823C64.321 113.997 64.437 114.171 64.553 114.345C64.6255 114.389 64.7125 114.418 64.7705 114.49C65.829 115.868 66.873 117.26 67.946 118.623C68.439 119.261 69.019 119.841 69.5555 120.45C69.5555 120.073 69.4395 119.826 69.28 119.594L69.2365 119.58ZM37.409 29.1866C36.626 29.1866 35.8285 29.6216 35.669 30.1436C36.8966 29.8342 37.9358 29.9116 38.7865 30.3756C38.4675 29.5346 38.0325 29.1721 37.409 29.1721V29.1866ZM36.568 31.8981C36.278 31.9271 35.901 32.6086 35.8285 33.0436C35.7415 33.5511 35.901 34.2761 36.597 34.2181C36.9305 34.1891 37.2205 33.5801 37.525 33.2321C37.293 32.5361 37.264 31.8256 36.568 31.8981ZM24.6055 45.2381C26.244 45.1366 27.7085 43.9186 27.6505 42.8601C26.679 43.6141 25.664 44.4116 24.6055 45.2381Z" fill="#8F8F8F"/>
<path d="M24.6055 45.2374C25.664 44.4109 26.679 43.6134 27.6505 42.8594C27.7085 43.9179 26.244 45.1359 24.6055 45.2374ZM36.597 34.2174C35.901 34.2754 35.7415 33.5504 35.8285 33.0429C35.901 32.6079 36.278 31.9264 36.568 31.8974C37.2785 31.8249 37.293 32.5354 37.525 33.2314C37.2205 33.5794 36.9305 34.1884 36.597 34.2174ZM35.669 30.1574C35.8285 29.6354 36.626 29.2004 37.409 29.2004C38.047 29.2004 38.482 29.5484 38.7865 30.4039C37.9261 29.9302 36.887 29.8529 35.669 30.1719V30.1574ZM67.9025 118.607C66.8295 117.244 65.7855 115.852 64.727 114.475C64.6835 114.417 64.582 114.373 64.5095 114.33C64.3935 114.156 64.2775 113.982 64.1615 113.808C63.7845 113.344 63.393 112.894 63.0305 112.416C61.2325 109.965 59.42 107.515 57.6655 105.035C55.65 102.193 55.4615 99.1194 56.723 95.9294C58.1585 92.3479 59.6375 88.7954 61.102 85.2284C61.189 84.9964 61.334 84.7934 61.653 84.6339C61.566 85.0254 61.508 85.4314 61.3775 85.8084C60.1885 89.2014 59.0285 92.5944 57.7815 95.9729C56.5925 99.2064 56.8535 102.179 58.9415 105.006C60.8845 107.645 62.726 110.357 64.5965 113.025C66.1335 115.2 67.656 117.389 69.193 119.564C69.3525 119.796 69.483 120.043 69.4685 120.42C68.932 119.811 68.3665 119.231 67.859 118.593L67.9025 118.607Z" fill="#C28C70"/>
<path d="M67.6549 121.829C60.7674 122.438 56.4464 121.133 50.7624 119.393C50.5449 119.321 50.2984 119.364 50.0664 119.364C50.0374 119.364 49.9939 119.364 49.9649 119.335C49.5589 119.074 49.1529 118.828 48.7614 118.567C48.6744 118.509 48.6454 118.378 48.7179 118.306C48.8774 118.132 49.0514 117.958 49.0369 117.784C49.0369 116.798 49.0079 115.812 48.8339 114.84C48.1959 111.288 47.5144 107.735 46.8329 104.183C46.5429 103.124 46.2529 102.08 45.9629 101.036C45.0349 97.7448 44.1069 94.4533 43.1789 91.1473C43.1789 91.1183 43.1789 91.0893 43.1789 91.0603L41.3809 84.1148C41.3229 83.8683 41.2649 83.6218 41.2359 83.3753C40.8879 80.4173 40.3079 77.4593 40.2499 74.5013C40.1629 69.7308 40.4674 64.9458 40.5254 60.1608C40.5544 57.9713 40.1194 55.8398 39.3799 53.7663C38.9159 52.4758 38.5244 51.1418 38.1039 49.8368V49.7933L37.5819 48.9523C37.1179 47.8938 36.6539 46.8643 36.1899 45.8203C36.1899 45.7913 36.1754 45.7623 36.1899 45.7188C36.2044 45.5738 36.2334 45.4288 36.2624 45.2403C36.2769 45.1098 36.1464 45.0083 36.0159 45.0518C35.7259 45.1678 35.4939 45.2548 35.2619 45.3563C32.8549 46.4293 30.4624 47.5313 28.0409 48.5753C27.3304 48.8798 26.5619 49.1118 25.8079 49.3003C24.4014 49.6483 23.6474 49.3873 22.7774 48.2418C22.7194 48.1693 22.6324 48.1548 22.5599 48.1838C18.8044 50.0543 15.1214 49.5033 11.5109 47.6763C11.3949 47.6183 11.3804 47.4588 11.4819 47.3863C12.7434 46.3423 14.0339 45.3273 15.2374 44.2253C15.8464 43.6743 16.4554 42.8913 15.9624 42.0068C15.4984 41.1658 14.5704 41.3253 13.7729 41.4268C13.1929 41.4993 12.6129 41.6008 12.0474 41.7168C11.8734 41.7458 11.7719 41.5428 11.8879 41.4123C13.3959 39.9478 14.8314 38.4108 16.4699 37.1058C19.0509 35.0178 21.8059 33.1328 24.4739 31.1753H24.5029C26.7649 29.9283 29.0414 28.7103 31.3034 27.4923H31.3324L32.5504 27.1008C32.8549 26.9993 33.1884 26.8978 33.4929 26.7963C33.6814 26.7383 34.0149 26.6513 34.0584 26.6368C34.2904 26.5643 34.5369 26.4628 34.7689 26.4193C34.8414 26.4193 34.8994 26.4193 34.9719 26.4193C36.3639 26.4483 37.7414 26.4628 39.1189 26.4773C39.7714 26.8108 40.4239 27.1443 41.0764 27.4778C41.3954 27.6518 41.7289 27.8113 42.0624 27.9708C42.3524 28.1158 42.6569 28.2173 42.8454 28.5073C43.0484 28.8118 43.2224 29.1308 43.3964 29.4498C43.5994 29.8123 43.7734 30.1748 43.8894 30.5663C44.7304 33.5823 45.5569 36.5983 46.2529 39.6578C47.1084 43.4133 47.9204 47.1833 50.1824 50.3733C51.8934 52.7803 53.8654 54.9988 55.7214 57.3043C56.2289 57.9423 56.7509 58.5658 57.2729 59.1893C57.7224 59.7258 58.1719 60.2623 58.6359 60.7988C63.3919 66.3233 67.5244 72.2828 70.4389 78.9963C71.9034 82.3748 72.9474 85.9273 74.2669 89.3493C74.6729 90.4223 75.3109 91.4228 75.9779 92.3653C80.6179 98.9918 86.9979 102.399 95.0599 102.631C96.8289 102.675 98.5979 102.588 100.352 102.428C104.659 102.037 107.791 99.8328 110.067 96.1788C111.546 93.7863 113.098 91.4228 114.838 89.2333C117.056 86.4203 120.116 84.5498 123.088 82.6213C125.002 81.3743 126.902 80.0403 128.946 79.0688C130.817 78.1843 132.876 77.7203 134.848 77.0678C135.007 77.0098 135.21 77.0098 135.37 77.0533C135.66 77.1403 135.95 77.2563 136.225 77.3578C136.312 77.3868 136.356 77.4883 136.327 77.5898C136.211 77.8798 136.138 78.1988 135.935 78.3873C133.934 80.4173 131.875 82.3748 129.903 84.4193C128.555 85.8258 127.279 87.2903 126.061 88.7983C124.045 91.2778 122.74 94.0618 122.218 97.2518C121.638 100.79 120.609 104.212 118.825 107.358C116.331 111.752 112.648 114.811 107.965 116.595C101.237 119.161 94.3349 119.857 87.2734 118.175C84.3444 117.479 81.6184 116.261 79.0519 114.681C78.7764 114.507 78.5154 114.347 78.2254 114.188C78.1819 114.173 78.1384 114.159 78.0659 114.144C77.9499 114.144 77.8629 114.217 77.8629 114.333C77.8629 114.333 77.8629 114.333 77.8629 114.347C77.9354 115.667 77.4134 116.957 76.4419 117.856C74.7889 119.379 71.8164 121.467 67.5534 121.844L67.6549 121.829Z" fill="#C28C70"/>
<path d="M15.4841 44.206C14.2081 45.366 12.8451 46.439 11.5256 47.541C9.78565 46.7725 9.30715 45.6415 9.91615 43.8725C10.0611 43.6405 10.2061 43.423 10.3656 43.191C10.8151 42.727 11.2646 42.2485 11.7141 41.7845C12.4826 41.654 13.2511 41.4945 14.0196 41.393C14.8171 41.2915 15.7451 41.132 16.2091 41.973C16.7021 42.8575 16.1076 43.626 15.4841 44.1915V44.206Z" fill="#202020"/>
<path d="M41.4156 82.2102C41.4156 82.2102 41.4156 82.1812 41.4156 82.1667C41.0676 79.2087 40.4876 76.2652 40.4441 73.3072C40.3571 68.5367 41.0531 68.0292 41.1111 63.2442C41.1401 61.0547 41.1111 55.9797 39.9801 51.8037C39.0956 48.5847 37.4281 46.0472 36.7031 45.0467C36.5436 44.8147 36.1811 44.8582 36.0796 45.1192C33.6001 51.5427 31.9471 54.6892 29.3806 64.9552C26.8141 75.2212 27.2056 88.5902 30.1056 96.3767C33.0056 104.163 37.7906 109.949 43.8081 114.197C45.3016 115.256 46.9111 116.155 48.4771 117.112C48.6221 117.199 48.8251 117.17 48.9411 117.039C49.0716 116.894 49.2021 116.749 49.2021 116.59C49.2021 115.604 49.1731 114.618 48.9991 113.646C48.3611 110.094 47.6796 106.541 46.9981 102.989C46.9981 102.989 46.9981 102.974 46.9981 102.96C46.7081 101.916 46.4181 100.872 46.1281 99.8277C45.2001 96.5217 44.2721 93.2012 43.3296 89.8952L41.4011 82.1812L41.4156 82.2102Z" fill="#F9F0E4"/>
<path d="M83.5083 126.002C83.5083 126.002 83.4507 126.002 83.4219 125.988C83.4507 125.988 83.4795 125.988 83.5083 126.002Z" fill="#868686"/>
<path d="M83.5083 126.019C83.5083 126.019 83.4507 126.019 83.4219 126.005C83.4507 126.005 83.4795 126.005 83.5083 126.019Z" fill="#8F8F8F"/>
<path d="M53.5808 74.2336L45.6203 68.3031L44.8518 74.3496L43.8803 79.4391L43.0103 82.3246L41.8938 85.3116L40.7773 86.5731L39.0083 87.6316L35.1513 89.0671L34.3828 89.7051V89.9951L34.8903 90.4446L36.2098 90.6911H38.9358L39.0518 90.9231L38.5298 92.2861L38.0223 94.6641L38.0803 95.6936L38.5008 96.2156L39.2258 95.9836L39.8058 95.4036L40.7338 93.2576L41.2268 91.2566L41.9373 92.2426L43.6773 94.4031L44.4458 94.7076L45.0113 94.2581L44.8953 93.1996L43.4743 89.9516L43.5178 88.9221L44.4458 87.7331L46.5483 84.9346L51.7538 77.5976L53.5808 74.2336Z" fill="#C28C70"/>
<path d="M53.8112 74.219C53.8112 74.219 53.8112 74.306 53.7967 74.3495C51.9697 77.873 49.6932 81.092 47.3297 84.253C46.5612 85.268 45.7492 86.2395 44.9662 87.24C44.7777 87.5155 44.6182 87.849 44.3717 88.081C43.5162 88.8205 43.4147 89.676 43.8932 90.6475C44.2992 91.474 44.7052 92.315 45.0387 93.1705C45.1837 93.533 45.2707 93.9535 45.2127 94.3305C45.0967 95.012 44.5022 95.2875 43.9947 94.8525C43.2697 94.2145 42.6897 93.417 42.0662 92.663C41.8922 92.4455 41.7472 92.199 41.5587 91.851C41.4862 91.7205 41.2832 91.7495 41.2397 91.8945C41.0077 92.7355 40.8192 93.4605 40.6162 94.1855C40.6162 94.1855 40.6162 94.2145 40.6017 94.229C40.3552 94.6785 40.1667 95.186 39.8187 95.563C39.4997 95.911 39.0357 96.346 38.6297 96.346C37.9772 96.346 37.7452 95.679 37.8322 95.1135C38.0062 94.0115 38.2672 92.9095 38.5137 91.822C38.5572 91.619 38.6587 91.416 38.7747 91.155C38.8327 91.039 38.7457 90.9085 38.6152 90.9085C38.0207 90.9085 37.5132 90.923 37.0057 90.9085C36.3387 90.8795 35.6572 90.865 35.0192 90.7055C34.7002 90.6185 34.4392 90.314 34.1637 90.0675C34.1057 90.0095 34.0912 89.908 34.1347 89.8355C34.3522 89.5455 34.5262 89.183 34.8162 89.0525C35.9037 88.5595 37.0347 88.1825 38.1367 87.762C38.3687 87.675 38.6007 87.5445 38.8327 87.443C38.8327 87.443 38.8327 87.443 38.8472 87.443C41.0367 86.7615 42.0082 85.007 42.6462 83.0205C44.0962 78.4675 44.8212 73.7695 45.3142 69.028C45.3432 68.767 45.3722 68.5205 45.4447 68.2595C45.5027 68.0565 45.8072 68.1145 45.7927 68.3175C45.3577 72.74 44.7052 77.1335 43.5162 81.4255C43.1392 82.7885 42.5447 84.0935 41.9792 85.384C41.4862 86.544 40.5002 87.211 39.3547 87.6605C37.9772 88.197 36.5852 88.7045 35.2222 89.2555C34.9902 89.357 34.8017 89.56 34.6132 89.734C34.5407 89.8065 34.5407 89.9225 34.6132 89.995C34.8452 90.198 35.0627 90.43 35.3092 90.459C36.3387 90.546 37.3827 90.517 38.4267 90.517C38.6587 90.517 38.8907 90.488 39.1952 90.459C39.3257 90.459 39.4272 90.5895 39.3692 90.7055C39.0357 91.4305 38.7022 92.0395 38.5282 92.692C38.3107 93.5185 38.2382 94.403 38.1947 95.2585C38.1947 95.505 38.4267 95.94 38.6297 95.9835C38.8472 96.0415 39.2822 95.824 39.4127 95.6065C39.8042 94.925 40.1377 94.2145 40.3842 93.4895C40.6597 92.721 40.8627 91.938 41.1092 91.039C41.1527 90.894 41.3412 90.865 41.4282 90.9955C41.9937 91.88 42.5012 92.6775 43.0377 93.446C43.2842 93.794 43.5887 94.113 43.9367 94.3595C44.1252 94.49 44.4877 94.5045 44.7197 94.4175C44.8212 94.374 44.8647 93.939 44.7922 93.7215C44.5457 93.04 44.2412 92.3875 43.9512 91.7205C43.7772 91.3 43.5887 90.865 43.4292 90.43C43.0812 89.502 43.1102 88.6755 43.9657 88.0085C44.2702 87.762 44.5167 87.414 44.7777 87.124C45.9812 85.5 47.1992 83.876 48.3737 82.223C50.2007 79.642 52.1147 77.119 53.4342 74.2335C53.5067 74.0595 53.7677 74.0885 53.7967 74.277L53.8112 74.219Z" fill="#737373"/>
<path d="M37.5306 33.2299C37.2261 33.5779 36.9361 34.1869 36.6026 34.2159C35.9066 34.2739 35.7471 33.5489 35.8341 33.0414C35.9066 32.6064 36.2836 31.9249 36.5736 31.8959C37.2841 31.8234 37.2986 32.5339 37.5306 33.2299Z" fill="#202020"/>
<path d="M37.4158 29.1866C36.6328 29.1866 35.8353 29.6216 35.6758 30.1436C36.9034 29.8342 37.9426 29.9116 38.7933 30.3756C38.4743 29.5346 38.0393 29.1721 37.4158 29.1721V29.1866Z" fill="black"/>
<path d="M36.5736 31.8955C36.2836 31.9245 35.9066 32.606 35.8341 33.041C35.7471 33.5485 35.9066 34.2735 36.6026 34.2155C36.9361 34.1865 37.4146 33.853 37.5306 33.2295C37.6466 32.606 37.2696 31.823 36.5736 31.8955Z" fill="black"/>
<path d="M22.5234 48.1967C24.1619 48.0952 25.6264 46.8772 25.5684 45.8187C24.5969 46.5727 23.5819 47.3702 22.5234 48.1967Z" fill="black"/>
<path d="M38.805 30.3894C37.9447 29.9157 36.9055 29.8384 35.6875 30.1574C35.847 29.6354 36.6445 29.2004 37.4275 29.2004C38.0655 29.2004 38.5005 29.5484 38.805 30.4039V30.3894Z" fill="#707070"/>
<path d="M31.6142 137.776C30.5267 138.733 29.5987 139.53 28.6562 140.357C28.7287 139.298 30.1207 138.022 31.6142 137.776Z" fill="#1B1B1B"/>
<path d="M32.7419 138.834C32.0024 139.283 31.2629 139.747 30.4219 140.255C30.6104 139.283 31.5674 138.689 32.7419 138.834Z" fill="#1E1E1E"/>
<path d="M75.4875 133.481C75.589 134.626 75.6904 135.786 75.8064 136.932C75.9418 138.246 75.3811 139.068 74.1244 139.397C73.7909 139.484 73.4574 139.585 73.1094 139.643C67.2514 140.47 61.4079 141.325 55.5354 142.108C53.4619 142.384 53.4475 142.311 53.9695 140.296C55.1875 137.903 57.3189 136.584 59.6824 135.612C61.2774 134.96 62.9594 134.525 64.5979 133.988C66.3814 133.626 68.1649 133.263 69.9339 132.901C69.9194 132.698 69.9629 132.437 69.8615 132.277C69.6005 131.857 69.2814 131.494 68.9769 131.103C68.6289 130.682 68.281 130.262 67.9184 129.841C66.1059 127.666 64.2499 125.506 62.4809 123.302C59.7839 119.967 57.1304 116.603 54.4769 113.239C51.1274 108.99 49.2279 104.249 49.5759 98.7676C49.6484 97.5931 49.9674 96.433 50.1849 95.2585C50.4169 95.534 50.7214 95.7805 50.8809 96.0995C54.2739 102.625 59.1459 107.685 65.7144 111.049C67.4399 111.934 69.267 112.615 71.036 113.398C71.5435 113.63 72.0509 113.862 72.5729 114.094C72.9354 116.182 73.3415 118.256 73.646 120.344C74.284 124.723 74.8639 129.116 75.4729 133.51L75.4875 133.481Z" fill="#C28C70"/>
<path d="M57.8118 138.209C56.8693 139.311 56.0718 140.239 55.2453 141.181C55.1728 140.123 56.3763 138.658 57.8118 138.209Z" fill="#1B1B1B"/>
<path d="M59.1036 139.109C58.4366 139.66 57.7696 140.226 57.0156 140.849C57.0736 139.863 57.9291 139.138 59.1036 139.109Z" fill="#1E1E1E"/>
<path d="M43.6618 30.2582C44.3578 30.3597 45.0828 30.2147 45.6918 29.8377C47.6493 28.6342 51.9268 26.1257 52.4053 25.7342C57.0308 21.9352 59.0318 17.1792 59.0608 11.7562C59.0608 9.33474 58.5243 9.03024 56.0448 9.84224C47.3158 12.7132 41.5303 18.1507 39.2828 26.6622C39.2393 26.8072 40.1093 28.0397 40.6748 28.9387C41.0518 29.5332 41.6753 29.9392 42.4293 30.0552L43.6618 30.2437V30.2582Z" fill="#C28C70"/>
<path d="M44.4741 27.9509C44.8221 27.9219 45.1266 27.7624 45.4311 27.5304C46.4316 26.7909 48.6066 25.2539 48.8531 25.0219C51.2021 22.8759 52.2316 20.5559 52.2316 18.1634C52.2316 17.0904 51.9561 17.0179 50.6946 17.6269C46.2431 19.8019 41.7191 22.4989 42.1541 26.7909C42.1976 27.2549 42.4296 27.4434 42.7051 27.7769C42.8936 27.9944 43.4446 28.0089 43.8216 27.9944L44.4596 27.9509H44.4741Z" fill="#FFFFFD"/>
<path d="M68.2277 117.841C67.9667 117.232 67.2707 116.232 66.8212 115.579C64.5157 112.317 62.2392 109.025 59.9337 105.748C58.1647 103.24 56.1782 100.673 55.9752 97.585C55.8157 95.5985 56.3667 93.6265 56.9902 91.756C57.8167 89.3635 58.6867 87 59.4987 84.6075C59.7742 83.81 60.1512 82.563 60.0642 82.273C59.7887 82.0555 58.6432 84.9555 58.3677 85.608C57.4687 87.812 56.5262 90.0015 55.6997 92.2345C54.8152 94.598 54.3077 97.208 55.0617 99.673C56.0477 102.877 58.4837 105.589 60.3977 108.344C62.7757 111.49 65.1392 114.651 67.6912 117.624C68.1407 118.088 68.3292 118.175 68.2132 117.87L68.2277 117.841Z" fill="#737373"/>
</svg>
